<?xml version="1.0" encoding="iso-8859-1"?>
<!-- Generator: Adobe Illustrator 16.0.0, SVG Export Plug-In . SVG Version: 6.00 Build 0)  -->
<!DOCTYPE svg PUBLIC "-//W3C//DTD SVG 1.1//EN" "http://www.w3.org/Graphics/SVG/1.1/DTD/svg11.dtd">
<svg version="1.1" id="Capa_1" xmlns="http://www.w3.org/2000/svg" xmlns:xlink="http://www.w3.org/1999/xlink" x="0px" y="0px"
	 width="617.358px" height="617.358px" viewBox="0 0 617.358 617.358" style="enable-background:new 0 0 617.358 617.358;"
	 xml:space="preserve">
<g>
	<path id="Fill-8" d="M23.419,64.773C23.419,28.998,52.417,0,88.192,0s64.773,28.998,64.773,64.773
		s-28.998,64.773-64.773,64.773S23.419,100.548,23.419,64.773L23.419,64.773z M172.792,154.89c0,0,18.261,8.136,20.583,9.252
		c124.245,59.823,194.904,143.496,236.25,279.764c4.383,14.445,17.667,23.77,32.031,23.77c3.213,0,6.498-0.477,9.737-1.449
		c17.703-5.373,27.685-24.074,22.312-41.76c-22.896-75.465-53.73-136.827-95.598-187.884c1.287,0.144,2.564,0.333,3.834,0.333
		c13.644,0,26.46-8.397,31.437-21.942c6.381-17.361-2.52-36.603-19.872-42.984L195.895,92.034
		c-17.37-6.39-36.603,2.52-42.975,19.872C146.539,129.267,155.44,148.518,172.792,154.89L172.792,154.89z M603.721,594.863
		L39.619,240.948c-7.029-4.401-9.387-13.536-5.373-20.799l3.735-6.75c3.249-5.886,1.116-13.293-4.77-16.542
		c-5.895-3.267-13.293-1.116-16.551,4.761l-3.726,6.75c-10.26,18.567-4.23,41.94,13.743,53.217L590.77,615.492
		c2.098,1.314,4.455,1.916,6.769,1.863c3.941-0.1,7.758-2.107,10.008-5.707C611.128,605.943,609.409,598.438,603.721,594.863
		L603.721,594.863z"/>
</g>

</svg>
