<?xml version="1.0" encoding="iso-8859-1"?>
<!-- Generator: Adobe Illustrator 18.0.0, SVG Export Plug-In . SVG Version: 6.00 Build 0)  -->
<!DOCTYPE svg PUBLIC "-//W3C//DTD SVG 1.1//EN" "http://www.w3.org/Graphics/SVG/1.1/DTD/svg11.dtd">
<svg version="1.1" id="Capa_1" xmlns="http://www.w3.org/2000/svg" xmlns:xlink="http://www.w3.org/1999/xlink" x="0px" y="0px"
	 viewBox="0 0 56 56" style="enable-background:new 0 0 56 56;" xml:space="preserve">
<path style="fill:#231F20;" d="M53,0c-1.657,0-3,1.343-3,3v11.414c-5.088-4.135-12.979-6.748-22-6.748c-15.701,0-28,7.907-28,18
	c0,7.727,7.228,14.375,18.416,16.939c0.8,0.183,1.643,0.029,2.329-0.424L28,37.367l7.255,4.814c0.496,0.329,1.074,0.5,1.659,0.5
	c0.224,0,0.448-0.025,0.67-0.076c5.049-1.157,9.28-3.151,12.416-5.696V46c0,2.206-1.794,4-4,4H35c-2.206,0-4-1.794-4-4
	c0-1.657-1.343-3-3-3s-3,1.343-3,3c0,5.514,4.486,10,10,10h11c5.514,0,10-4.486,10-10V3C56,1.343,54.657,0,53,0z M37.471,36.45
	l-7.812-5.183c-0.503-0.333-1.081-0.5-1.659-0.5s-1.156,0.167-1.659,0.5l-7.812,5.183C11.091,34.433,6,30.101,6,25.667
	c0-6.505,10.075-12,22-12s22,5.495,22,12C50,30.101,44.909,34.433,37.471,36.45z"/>
<g>
</g>
<g>
</g>
<g>
</g>
<g>
</g>
<g>
</g>
<g>
</g>
<g>
</g>
<g>
</g>
<g>
</g>
<g>
</g>
<g>
</g>
<g>
</g>
<g>
</g>
<g>
</g>
<g>
</g>
</svg>
