<?xml version="1.0" encoding="iso-8859-1"?>
<!-- Generator: Adobe Illustrator 18.0.0, SVG Export Plug-In . SVG Version: 6.00 Build 0)  -->
<!DOCTYPE svg PUBLIC "-//W3C//DTD SVG 1.1//EN" "http://www.w3.org/Graphics/SVG/1.1/DTD/svg11.dtd">
<svg version="1.1" id="Capa_1" xmlns="http://www.w3.org/2000/svg" xmlns:xlink="http://www.w3.org/1999/xlink" x="0px" y="0px"
	 viewBox="0 0 53.843 53.843" style="enable-background:new 0 0 53.843 53.843;" xml:space="preserve">
<path style="fill:#231F20;" d="M50.593,32.002v-10.86c0-8.771-6.609-16.016-15.106-17.049c-0.603-2.249-2.635-3.914-5.075-3.914
	c-2.388,0-4.382,1.598-5.032,3.775h-8.224c-0.649-2.177-2.643-3.775-5.032-3.775c-2.913,0-5.274,2.362-5.274,5.275v3.685
	C2.803,11.105,0,15.246,0,20.039v30.625c0,1.657,1.343,3,3,3h18.25c0.006,0,0.012-0.002,0.019-0.002
	c0.006,0,0.012,0.002,0.019,0.002h18.25c1.657,0,3-1.343,3-3V20.039c0-4.794-2.803-8.934-6.851-10.901V7.155
	c6.74,1.097,11.906,6.942,11.906,13.987v10.86c-1.882,0.632-3.25,2.392-3.25,4.484c0,0.829,0.672,1.5,1.5,1.5s1.5-0.671,1.5-1.5
	c0-0.965,0.785-1.75,1.75-1.75s1.75,0.785,1.75,1.75c0,0.829,0.672,1.5,1.5,1.5s1.5-0.671,1.5-1.5
	C53.843,34.394,52.475,32.634,50.593,32.002z M21.269,12.101c-1.071-1.232-2.386-2.242-3.869-2.963V6.954h7.738v2.185
	C23.654,9.859,22.34,10.869,21.269,12.101z M6,47.664V20.039c0-3.377,2.748-6.125,6.125-6.125s6.125,2.748,6.125,6.125v1.292h-4.167
	c-0.828,0-1.5,0.671-1.5,1.5s0.672,1.5,1.5,1.5h4.167v5.667h-4.167c-0.828,0-1.5,0.671-1.5,1.5s0.672,1.5,1.5,1.5h4.167v5.667
	h-4.167c-0.828,0-1.5,0.671-1.5,1.5s0.672,1.5,1.5,1.5h4.167v6H6z M36.537,21.331H32.37c-0.828,0-1.5,0.671-1.5,1.5
	s0.672,1.5,1.5,1.5h4.167v5.667H32.37c-0.828,0-1.5,0.671-1.5,1.5s0.672,1.5,1.5,1.5h4.167v5.667H32.37c-0.828,0-1.5,0.671-1.5,1.5
	s0.672,1.5,1.5,1.5h4.167v6h-12.25V20.039c0-3.377,2.748-6.125,6.125-6.125s6.125,2.748,6.125,6.125V21.331z"/>
<g>
</g>
<g>
</g>
<g>
</g>
<g>
</g>
<g>
</g>
<g>
</g>
<g>
</g>
<g>
</g>
<g>
</g>
<g>
</g>
<g>
</g>
<g>
</g>
<g>
</g>
<g>
</g>
<g>
</g>
</svg>
