<?xml version="1.0" encoding="iso-8859-1"?>
<!-- Generator: Adobe Illustrator 18.0.0, SVG Export Plug-In . SVG Version: 6.00 Build 0)  -->
<!DOCTYPE svg PUBLIC "-//W3C//DTD SVG 1.1//EN" "http://www.w3.org/Graphics/SVG/1.1/DTD/svg11.dtd">
<svg version="1.1" id="Capa_1" xmlns="http://www.w3.org/2000/svg" xmlns:xlink="http://www.w3.org/1999/xlink" x="0px" y="0px"
	 viewBox="0 0 55.183 55.183" style="enable-background:new 0 0 55.183 55.183;" xml:space="preserve">
<g>
	<path style="fill:#231F20;" d="M50.105,28.018H5.058c-0.829,0-1.5,0.671-1.5,1.5v5.793c0,0.722,0.514,1.341,1.223,1.474
		c8.408,1.579,17.79,8.404,18.938,17.093c0.099,0.746,0.735,1.304,1.487,1.304h4.752c0.752,0,1.389-0.558,1.487-1.304
		c1.147-8.689,10.529-15.515,18.937-17.093c0.709-0.133,1.223-0.752,1.223-1.474v-5.793C51.605,28.69,50.933,28.018,50.105,28.018z
		 M48.605,31.018v1.205H6.558v-1.205H48.605z M28.697,52.183h-2.229c-1.669-7.766-8.819-14.046-16.351-16.959h34.93
		C37.515,38.137,30.365,44.417,28.697,52.183z"/>
	<path style="fill:#231F20;" d="M4.973,25.47h45.216c0.007-0.001,0.013,0,0.02,0c0.829,0,1.5-0.671,1.5-1.5
		c0-0.524-0.269-0.986-0.677-1.254L34.875,8.723c2.1-0.285,3.764-2.066,3.81-4.236C38.738,2.066,36.812,0.054,34.33,0
		c-1.646,0-5.096,1.738-6.749,2.625c-1.654-0.887-5.11-2.624-6.811-2.624h-0.001c-2.419,0.053-4.345,2.065-4.292,4.485
		c0.047,2.171,1.71,3.952,3.811,4.237L3.992,22.836c-0.474,0.41-0.643,1.071-0.423,1.658C3.787,25.081,4.347,25.47,4.973,25.47z
		 M27.581,6.375l9.121,7.899l-9.121,7.729l-9.121-7.729L27.581,6.375z M31.672,22.47l7.326-6.208l7.168,6.208H31.672z M34.327,3
		c0.766,0.017,1.376,0.655,1.359,1.422c-0.016,0.75-0.639,1.359-1.388,1.359h-0.029c-0.45-0.023-1.815-0.627-3.389-1.465
		C32.489,3.547,33.878,3.004,34.327,3z M19.476,4.421C19.459,3.655,20.069,3.017,20.831,3c0.451,0.004,1.841,0.547,3.45,1.316
		c-1.573,0.838-2.937,1.441-3.386,1.465h-0.032C20.115,5.781,19.492,5.171,19.476,4.421z M16.165,16.262l7.326,6.208H8.997
		L16.165,16.262z"/>
</g>
<g>
</g>
<g>
</g>
<g>
</g>
<g>
</g>
<g>
</g>
<g>
</g>
<g>
</g>
<g>
</g>
<g>
</g>
<g>
</g>
<g>
</g>
<g>
</g>
<g>
</g>
<g>
</g>
<g>
</g>
</svg>
