<?xml version="1.0" encoding="iso-8859-1"?>
<!-- Generator: Adobe Illustrator 18.0.0, SVG Export Plug-In . SVG Version: 6.00 Build 0)  -->
<!DOCTYPE svg PUBLIC "-//W3C//DTD SVG 1.1//EN" "http://www.w3.org/Graphics/SVG/1.1/DTD/svg11.dtd">
<svg version="1.1" id="Capa_1" xmlns="http://www.w3.org/2000/svg" xmlns:xlink="http://www.w3.org/1999/xlink" x="0px" y="0px"
	 viewBox="0 0 60 60" style="enable-background:new 0 0 60 60;" xml:space="preserve">
<path style="fill:#231F20;" d="M33,5.487V3c0-1.657-1.343-3-3-3s-3,1.343-3,3v2.487C14.89,6.971,5.339,17.292,5.148,29.772
	c-0.02,1.266,0.758,2.408,1.944,2.854C13.06,34.87,19.888,36.184,27,36.473V54h-9.235c-1.657,0-3,1.343-3,3s1.343,3,3,3h24.47
	c1.657,0,3-1.343,3-3s-1.343-3-3-3H33V36.473c7.112-0.289,13.94-1.604,19.908-3.847c1.186-0.446,1.963-1.588,1.944-2.854
	C54.661,17.292,45.11,6.971,33,5.487z M17.893,15.759c-1.545,3.66-2.562,8.1-2.888,13.023c-1.264-0.31-2.505-0.651-3.705-1.039
	C11.92,22.959,14.366,18.734,17.893,15.759z M20.954,29.913c0.419-8.319,3.058-14.638,6.046-17.268v17.816
	C24.949,30.371,22.929,30.186,20.954,29.913z M33,12.645c2.987,2.629,5.627,8.949,6.046,17.268
	c-1.975,0.273-3.995,0.458-6.046,0.549V12.645z M44.994,28.782c-0.326-4.923-1.343-9.364-2.888-13.023
	c3.527,2.975,5.973,7.201,6.593,11.984C47.5,28.132,46.258,28.473,44.994,28.782z"/>
<g>
</g>
<g>
</g>
<g>
</g>
<g>
</g>
<g>
</g>
<g>
</g>
<g>
</g>
<g>
</g>
<g>
</g>
<g>
</g>
<g>
</g>
<g>
</g>
<g>
</g>
<g>
</g>
<g>
</g>
</svg>
