<?xml version="1.0" encoding="iso-8859-1"?>
<!-- Generator: Adobe Illustrator 18.0.0, SVG Export Plug-In . SVG Version: 6.00 Build 0)  -->
<!DOCTYPE svg PUBLIC "-//W3C//DTD SVG 1.1//EN" "http://www.w3.org/Graphics/SVG/1.1/DTD/svg11.dtd">
<svg version="1.1" id="Capa_1" xmlns="http://www.w3.org/2000/svg" xmlns:xlink="http://www.w3.org/1999/xlink" x="0px" y="0px"
	 viewBox="0 0 65.311 65.311" style="enable-background:new 0 0 65.311 65.311;" xml:space="preserve">
<path style="fill:#231F20;" d="M62.31,29.655h-2.411c-0.639-5.838-3.116-11.129-6.841-15.281l3.226-3.226
	c0.586-0.585,0.586-1.536,0-2.121c-0.586-0.586-1.535-0.586-2.121,0l-3.226,3.226c-4.153-3.725-9.444-6.203-15.282-6.841V3
	c0-1.657-1.343-3-3-3s-3,1.343-3,3v2.412c-5.837,0.639-11.128,3.116-15.281,6.841l-3.226-3.226c-0.586-0.586-1.535-0.586-2.121,0
	c-0.586,0.585-0.586,1.536,0,2.121l3.226,3.226c-3.725,4.153-6.203,9.444-6.841,15.282H3c-1.657,0-3,1.343-3,3s1.343,3,3,3h2.411
	c0.639,5.838,3.116,11.129,6.841,15.282l-3.226,3.226c-0.586,0.585-0.586,1.536,0,2.121c0.293,0.293,0.677,0.439,1.061,0.439
	s0.768-0.146,1.061-0.439l3.226-3.226c4.153,3.725,9.444,6.203,15.282,6.841v2.411c0,1.657,1.343,3,3,3s3-1.343,3-3v-2.411
	c5.838-0.639,11.129-3.116,15.283-6.841l3.226,3.226c0.293,0.293,0.677,0.439,1.061,0.439s0.768-0.146,1.061-0.439
	c0.586-0.585,0.586-1.536,0-2.121l-3.226-3.226c3.725-4.153,6.203-9.444,6.841-15.282h2.411c1.657,0,3-1.343,3-3
	S63.967,29.655,62.31,29.655z M48.268,19.164c2.515,2.906,4.222,6.515,4.805,10.491H37.776L48.268,19.164z M35.655,27.535V12.237
	c3.977,0.583,7.586,2.29,10.492,4.806L35.655,27.535z M29.655,27.534L19.164,17.043c2.906-2.515,6.515-4.223,10.491-4.805V27.534z
	 M27.534,29.655H12.238c0.582-3.977,2.29-7.585,4.805-10.491L27.534,29.655z M27.534,35.655L17.043,46.147
	c-2.515-2.906-4.222-6.515-4.805-10.491H27.534z M29.655,37.777v15.296c-3.977-0.583-7.585-2.29-10.491-4.805L29.655,37.777z
	 M35.655,37.776l10.492,10.492c-2.906,2.515-6.515,4.223-10.492,4.806V37.776z M37.776,35.655h15.296
	c-0.582,3.977-2.29,7.585-4.805,10.491L37.776,35.655z M56.876,29.655h-0.757c-0.611-4.804-2.666-9.162-5.718-12.625l0.532-0.532
	C54.12,20.1,56.259,24.644,56.876,29.655z M48.812,14.378l-0.532,0.532c-3.463-3.053-7.821-5.107-12.626-5.719V8.435
	C40.666,9.052,45.211,11.191,48.812,14.378z M29.655,8.435v0.756c-4.804,0.611-9.162,2.666-12.625,5.718l-0.532-0.532
	C20.099,11.191,24.644,9.052,29.655,8.435z M14.377,16.499l0.532,0.532c-3.052,3.463-5.107,7.82-5.718,12.625H8.435
	C9.052,24.644,11.191,20.1,14.377,16.499z M8.435,35.655h0.757c0.611,4.804,2.666,9.162,5.718,12.625l-0.532,0.532
	C11.191,45.211,9.052,40.666,8.435,35.655z M16.498,50.933l0.532-0.532c3.463,3.053,7.82,5.107,12.625,5.718v0.756
	C24.644,56.259,20.099,54.12,16.498,50.933z M35.655,56.876V56.12c4.805-0.611,9.163-2.666,12.626-5.719l0.532,0.532
	C45.211,54.12,40.666,56.259,35.655,56.876z M50.933,48.812l-0.532-0.532c3.052-3.463,5.107-7.82,5.718-12.625h0.757
	C56.259,40.666,54.12,45.211,50.933,48.812z"/>
<g>
</g>
<g>
</g>
<g>
</g>
<g>
</g>
<g>
</g>
<g>
</g>
<g>
</g>
<g>
</g>
<g>
</g>
<g>
</g>
<g>
</g>
<g>
</g>
<g>
</g>
<g>
</g>
<g>
</g>
</svg>
