<?xml version="1.0" encoding="iso-8859-1"?>
<!-- Generator: Adobe Illustrator 18.0.0, SVG Export Plug-In . SVG Version: 6.00 Build 0)  -->
<!DOCTYPE svg PUBLIC "-//W3C//DTD SVG 1.1//EN" "http://www.w3.org/Graphics/SVG/1.1/DTD/svg11.dtd">
<svg version="1.1" id="Capa_1" xmlns="http://www.w3.org/2000/svg" xmlns:xlink="http://www.w3.org/1999/xlink" x="0px" y="0px"
	 viewBox="0 0 60.008 60.008" style="enable-background:new 0 0 60.008 60.008;" xml:space="preserve">
<g>
	<path style="fill:#231F20;" d="M40.417,31.843c-0.005-0.011-0.011-0.022-0.017-0.034c-0.006-0.011-0.012-0.023-0.018-0.034
		L26.769,5.113c-0.638-1.249-2.146-1.732-3.372-1.084L9.29,11.513c-4.075,2.163-7.086,5.828-8.477,10.322
		c-1.391,4.493-0.987,9.256,1.134,13.41c2.121,4.155,5.717,7.224,10.126,8.641c4.407,1.416,9.082,1.006,13.157-1.156l11.89-6.308
		l10.606,20.772c0.445,0.873,1.317,1.373,2.22,1.373c0.389-0.001,0.783-0.094,1.152-0.289c1.225-0.65,1.701-2.189,1.063-3.437
		L40.417,31.843z M25.656,36.758l-2.086-4.086l2.879-1.527l2.086,4.086L25.656,36.758z M22.184,29.96l-1.498-2.933l2.879-1.527
		l1.498,2.933L22.184,29.96z M7.166,34.2l5.321-2.823l1.498,2.933l-4.56,2.419C8.562,36.002,7.806,35.15,7.166,34.2z M5.582,23.367
		c0.322-1.041,0.778-2.011,1.33-2.909l1.308,2.561l-2.95,1.565C5.353,24.176,5.457,23.77,5.582,23.367z M5.044,28.151l4.56-2.419
		l1.498,2.933l-5.322,2.823C5.384,30.408,5.133,29.288,5.044,28.151z M17.211,13.056l2.086,4.085l-2.879,1.527l-2.086-4.085
		L17.211,13.056z M20.683,19.855l1.498,2.933l-2.879,1.527l-1.498-2.933L20.683,19.855z M28.457,19.458l-3.616,1.918l-1.498-2.933
		l3.616-1.918L28.457,19.458z M16.642,25.726l-2.878,1.527l-1.498-2.933l2.877-1.527L16.642,25.726z M15.149,29.965l2.878-1.527
		l1.498,2.933l-2.878,1.527L15.149,29.965z M26.225,24.088l3.616-1.918l1.498,2.933l-3.616,1.918L26.225,24.088z M23.488,9.727
		l2.086,4.085l-3.616,1.918l-2.086-4.085L23.488,9.727z M11.598,16.034l0.074-0.039l2.086,4.086l-2.877,1.526l-1.889-3.699
		C9.771,17.18,10.638,16.543,11.598,16.034z M12.419,38.588l2.951-1.565l1.308,2.562c-1.039-0.055-2.08-0.231-3.101-0.559
		C13.181,38.898,12.795,38.752,12.419,38.588z M19.921,39.31l-1.889-3.699l2.878-1.527l2.086,4.086l-0.074,0.04
		C21.961,38.718,20.952,39.077,19.921,39.31z M31.195,33.82l-2.086-4.086l3.616-1.918l2.086,4.085L31.195,33.82z"/>
	<path style="fill:#231F20;" d="M52.292,9.966c-0.232,0-0.462,0.015-0.69,0.04c0.199-1.879-0.403-3.83-1.813-5.268
		c-1.197-1.22-2.788-1.892-4.481-1.892c-1.693,0-3.284,0.672-4.481,1.892c-1.197,1.22-1.856,2.842-1.856,4.567
		c0,0.685,0.108,1.351,0.308,1.984c-0.925,0.206-1.776,0.674-2.462,1.373c-1.951,1.99-1.951,5.227,0,7.216
		c0.946,0.964,2.203,1.495,3.54,1.495c0.035,0,0.068-0.004,0.103-0.005c-0.026,1.341,0.458,2.69,1.459,3.711
		c0.946,0.964,2.203,1.495,3.54,1.495s2.594-0.531,3.54-1.495c0.701-0.714,1.145-1.59,1.343-2.511
		c0.622,0.204,1.278,0.315,1.95,0.315h0c1.692,0,3.284-0.672,4.481-1.892c1.197-1.22,1.856-2.842,1.856-4.567
		c0-1.725-0.659-3.347-1.856-4.567C55.576,10.637,53.985,9.966,52.292,9.966z"/>
	<path style="fill:#231F20;" d="M59.701,8.482c-1.289-1.314-3.023-1.963-4.781-1.855c0.108-1.792-0.531-3.559-1.82-4.873
		c-0.41-0.418-1.074-0.418-1.484,0c-0.41,0.418-0.41,1.095,0,1.512c1.126,1.148,1.505,2.82,0.987,4.364
		c-0.129,0.386-0.032,0.814,0.251,1.102c0.283,0.288,0.702,0.387,1.081,0.256c1.513-0.527,3.155-0.142,4.281,1.006
		c0.205,0.209,0.473,0.313,0.742,0.313s0.537-0.104,0.742-0.313C60.111,9.577,60.111,8.9,59.701,8.482z"/>
</g>
<g>
</g>
<g>
</g>
<g>
</g>
<g>
</g>
<g>
</g>
<g>
</g>
<g>
</g>
<g>
</g>
<g>
</g>
<g>
</g>
<g>
</g>
<g>
</g>
<g>
</g>
<g>
</g>
<g>
</g>
</svg>
