<?xml version="1.0" encoding="iso-8859-1"?>
<!-- Generator: Adobe Illustrator 18.0.0, SVG Export Plug-In . SVG Version: 6.00 Build 0)  -->
<!DOCTYPE svg PUBLIC "-//W3C//DTD SVG 1.1//EN" "http://www.w3.org/Graphics/SVG/1.1/DTD/svg11.dtd">
<svg version="1.1" id="Capa_1" xmlns="http://www.w3.org/2000/svg" xmlns:xlink="http://www.w3.org/1999/xlink" x="0px" y="0px"
	 viewBox="0 0 67.572 67.572" style="enable-background:new 0 0 67.572 67.572;" xml:space="preserve">
<path style="fill:#231F20;" d="M66.982,52.779L36.196,11.222c-0.565-0.764-1.46-1.214-2.41-1.214s-1.845,0.451-2.41,1.214
	L0.59,52.779c-0.986,1.331-0.707,3.21,0.624,4.196c1.331,0.986,3.211,0.707,4.196-0.625l5.629-7.598v5.813c0,1.657,1.343,3,3,3
	h9.083c0.999,0,1.933-0.498,2.49-1.327l8.174-12.168l8.174,12.168c0.558,0.83,1.491,1.327,2.49,1.327h9.083c1.657,0,3-1.343,3-3
	v-5.813l5.629,7.598c0.588,0.794,1.494,1.214,2.412,1.214c0.621,0,1.247-0.192,1.784-0.589
	C67.689,55.989,67.969,54.11,66.982,52.779z"/>
<g>
</g>
<g>
</g>
<g>
</g>
<g>
</g>
<g>
</g>
<g>
</g>
<g>
</g>
<g>
</g>
<g>
</g>
<g>
</g>
<g>
</g>
<g>
</g>
<g>
</g>
<g>
</g>
<g>
</g>
</svg>
