<?xml version="1.0" encoding="iso-8859-1"?>
<!-- Generator: Adobe Illustrator 18.0.0, SVG Export Plug-In . SVG Version: 6.00 Build 0)  -->
<!DOCTYPE svg PUBLIC "-//W3C//DTD SVG 1.1//EN" "http://www.w3.org/Graphics/SVG/1.1/DTD/svg11.dtd">
<svg version="1.1" id="Capa_1" xmlns="http://www.w3.org/2000/svg" xmlns:xlink="http://www.w3.org/1999/xlink" x="0px" y="0px"
	 viewBox="0 0 63.153 63.153" style="enable-background:new 0 0 63.153 63.153;" xml:space="preserve">
<g>
	<path style="fill:#231F20;" d="M62.101,25.68c-1.261-1.076-3.155-0.927-4.229,0.335l-3.118,3.656l-6.134-0.021
		c-0.003,0-0.007,0-0.01,0c-0.878,0-1.712,0.385-2.282,1.053l-7.615,8.927H12.728c-0.722,0-1.419,0.26-1.964,0.732l-9.728,8.424
		c-1.253,1.084-1.389,2.979-0.304,4.231c1.085,1.255,2.98,1.388,4.231,0.304l8.882-7.691h32.679l8.881,7.691
		c0.567,0.491,1.267,0.732,1.963,0.732c0.84,0,1.676-0.351,2.269-1.036c1.085-1.252,0.949-3.146-0.304-4.231l-7.476-6.474
		l10.578-12.401C63.511,28.649,63.361,26.755,62.101,25.68z"/>
	<circle style="fill:#231F20;" cx="25.563" cy="23.622" r="6.356"/>
	<path style="fill:#231F20;" d="M25.563,16.686c1.189,0,2.153-0.964,2.153-2.153c0-1.189-2.153-5.433-2.153-5.433
		s-2.153,4.244-2.153,5.433C23.41,15.722,24.374,16.686,25.563,16.686z"/>
	<path style="fill:#231F20;" d="M23.41,32.711c0,1.189,2.153,5.433,2.153,5.433s2.153-4.244,2.153-5.433
		c0-1.189-0.964-2.153-2.153-2.153C24.374,30.559,23.41,31.522,23.41,32.711z"/>
	<path style="fill:#231F20;" d="M34.652,21.469c-1.189,0-2.153,0.964-2.153,2.153c0,1.189,0.964,2.153,2.153,2.153
		s5.433-2.153,5.433-2.153S35.841,21.469,34.652,21.469z"/>
	<path style="fill:#231F20;" d="M18.626,23.622c0-1.189-0.964-2.153-2.153-2.153s-5.433,2.153-5.433,2.153s4.244,2.153,5.433,2.153
		S18.626,24.811,18.626,23.622z"/>
	<path style="fill:#231F20;" d="M33.512,18.717c0.841-0.841,2.319-5.364,2.319-5.364s-4.523,1.479-5.364,2.32
		c-0.841,0.841-0.841,2.204,0,3.044C31.308,19.558,32.671,19.558,33.512,18.717z"/>
	<path style="fill:#231F20;" d="M17.613,28.527c-0.841,0.841-2.32,5.364-2.32,5.364s4.523-1.479,5.364-2.32
		c0.841-0.841,0.841-2.204,0-3.044C19.817,27.686,18.454,27.686,17.613,28.527z"/>
	<path style="fill:#231F20;" d="M35.831,33.891c0,0-1.479-4.523-2.32-5.364c-0.841-0.841-2.204-0.841-3.044,0
		c-0.841,0.841-0.841,2.204,0,3.044C31.308,32.412,35.831,33.891,35.831,33.891z"/>
	<path style="fill:#231F20;" d="M20.658,18.717c0.841-0.841,0.841-2.204,0-3.044c-0.841-0.841-5.364-2.32-5.364-2.32
		s1.479,4.523,2.32,5.364C18.454,19.558,19.817,19.558,20.658,18.717z"/>
</g>
<g>
</g>
<g>
</g>
<g>
</g>
<g>
</g>
<g>
</g>
<g>
</g>
<g>
</g>
<g>
</g>
<g>
</g>
<g>
</g>
<g>
</g>
<g>
</g>
<g>
</g>
<g>
</g>
<g>
</g>
</svg>
