<?xml version="1.0" encoding="iso-8859-1"?>
<!-- Generator: Adobe Illustrator 18.0.0, SVG Export Plug-In . SVG Version: 6.00 Build 0)  -->
<!DOCTYPE svg PUBLIC "-//W3C//DTD SVG 1.1//EN" "http://www.w3.org/Graphics/SVG/1.1/DTD/svg11.dtd">
<svg version="1.1" id="Capa_1" xmlns="http://www.w3.org/2000/svg" xmlns:xlink="http://www.w3.org/1999/xlink" x="0px" y="0px"
	 viewBox="0 0 68.667 68.667" style="enable-background:new 0 0 68.667 68.667;" xml:space="preserve">
<path style="fill:#231F20;" d="M63.525,26.613l-4.285-7.421c-0.535-0.928-1.526-1.5-2.598-1.5H37.334v-5.079
	C39.505,11.512,41,9.263,41,6.667C41,2.991,38.01,0,34.334,0s-6.667,2.991-6.667,6.667c0,2.596,1.495,4.845,3.667,5.945v5.079
	h-19.31c-1.071,0-2.063,0.572-2.598,1.5l-4.285,7.421c-0.536,0.928-0.536,2.072,0,3l4.285,7.422c0.535,0.928,1.525,1.5,2.598,1.5
	h19.31v27.132c0,1.657,1.343,3,3,3s3-1.343,3-3V38.535h19.309c1.072,0,2.063-0.572,2.598-1.5l4.285-7.422
	C64.062,28.685,64.062,27.541,63.525,26.613z"/>
<g>
</g>
<g>
</g>
<g>
</g>
<g>
</g>
<g>
</g>
<g>
</g>
<g>
</g>
<g>
</g>
<g>
</g>
<g>
</g>
<g>
</g>
<g>
</g>
<g>
</g>
<g>
</g>
<g>
</g>
</svg>
