<?xml version="1.0" encoding="iso-8859-1"?>
<!-- Generator: Adobe Illustrator 18.0.0, SVG Export Plug-In . SVG Version: 6.00 Build 0)  -->
<!DOCTYPE svg PUBLIC "-//W3C//DTD SVG 1.1//EN" "http://www.w3.org/Graphics/SVG/1.1/DTD/svg11.dtd">
<svg version="1.1" id="Capa_1" xmlns="http://www.w3.org/2000/svg" xmlns:xlink="http://www.w3.org/1999/xlink" x="0px" y="0px"
	 viewBox="0 0 68.676 68.676" style="enable-background:new 0 0 68.676 68.676;" xml:space="preserve">
<path style="fill:#231F20;" d="M41.104,11.034V6.766c0-3.73-3.035-6.766-6.766-6.766s-6.766,3.035-6.766,6.766v4.269
	C15.53,14.063,6.588,24.978,6.588,37.946v15.873c0,1.657,1.343,3,3,3h6.143c-1.106,1.258-1.781,2.904-1.781,4.71
	c0,3.947,3.199,7.146,7.146,7.146c3.947,0,7.146-3.199,7.146-7.146c0-1.807-0.676-3.452-1.781-4.71h15.755
	c-1.106,1.258-1.781,2.904-1.781,4.71c0,3.947,3.199,7.146,7.146,7.146c3.947,0,7.146-3.199,7.146-7.146
	c0-1.807-0.676-3.452-1.781-4.71h6.144c1.657,0,3-1.343,3-3V37.946C62.088,24.978,53.145,14.063,41.104,11.034z M30.572,6.766
	C30.572,4.689,32.261,3,34.338,3s3.766,1.689,3.766,3.766v3.693c-1.233-0.168-2.488-0.262-3.766-0.262s-2.534,0.094-3.766,0.262
	V6.766z M38.661,28.938h-8.646v-1.681h8.646V28.938z M56.088,50.819h-6.393c0.955-0.836,1.571-2.05,1.571-3.416V33.498
	c0-2.515-2.045-4.56-4.559-4.56h-4.045v-2.596c0-1.701-1.384-3.085-3.084-3.085H29.099c-1.701,0-3.084,1.384-3.084,3.085v2.596
	h-4.045c-2.514,0-4.56,2.045-4.56,4.56v13.905c0,1.366,0.616,2.58,1.571,3.416h-6.393V37.946c0-11.993,9.757-21.75,21.75-21.75
	s21.75,9.757,21.75,21.75V50.819z"/>
<g>
</g>
<g>
</g>
<g>
</g>
<g>
</g>
<g>
</g>
<g>
</g>
<g>
</g>
<g>
</g>
<g>
</g>
<g>
</g>
<g>
</g>
<g>
</g>
<g>
</g>
<g>
</g>
<g>
</g>
</svg>
