<?xml version="1.0" encoding="iso-8859-1"?>
<!-- Generator: Adobe Illustrator 18.0.0, SVG Export Plug-In . SVG Version: 6.00 Build 0)  -->
<!DOCTYPE svg PUBLIC "-//W3C//DTD SVG 1.1//EN" "http://www.w3.org/Graphics/SVG/1.1/DTD/svg11.dtd">
<svg version="1.1" id="Capa_1" xmlns="http://www.w3.org/2000/svg" xmlns:xlink="http://www.w3.org/1999/xlink" x="0px" y="0px"
	 viewBox="0 0 70.617 70.617" style="enable-background:new 0 0 70.617 70.617;" xml:space="preserve">
<g>
	<path style="fill:#231F20;" d="M70.031,46.254L51.69,27.912c-0.78-0.781-2.047-0.781-2.828,0l-7.281,7.28L28.028,21.639
		c-0.75-0.75-2.078-0.75-2.828,0L0.586,46.253c-0.572,0.572-0.743,1.433-0.434,2.18S1.191,49.667,2,49.667l29.936-0.003
		c0.531,0,1.039-0.211,1.414-0.586l8.231-8.229l8.232,8.232c0.375,0.375,0.884,0.586,1.414,0.586l17.39,0.001
		c0.809,0,1.538-0.487,1.848-1.234S70.604,46.826,70.031,46.254z"/>
	<circle style="fill:#231F20;" cx="41.511" cy="25.66" r="4.711"/>
</g>
<g>
</g>
<g>
</g>
<g>
</g>
<g>
</g>
<g>
</g>
<g>
</g>
<g>
</g>
<g>
</g>
<g>
</g>
<g>
</g>
<g>
</g>
<g>
</g>
<g>
</g>
<g>
</g>
<g>
</g>
</svg>
