<?xml version="1.0" encoding="iso-8859-1"?>
<!-- Generator: Adobe Illustrator 18.0.0, SVG Export Plug-In . SVG Version: 6.00 Build 0)  -->
<!DOCTYPE svg PUBLIC "-//W3C//DTD SVG 1.1//EN" "http://www.w3.org/Graphics/SVG/1.1/DTD/svg11.dtd">
<svg version="1.1" id="Capa_1" xmlns="http://www.w3.org/2000/svg" xmlns:xlink="http://www.w3.org/1999/xlink" x="0px" y="0px"
	 viewBox="0 0 60.938 60.938" style="enable-background:new 0 0 60.938 60.938;" xml:space="preserve">
<g>
	<path style="fill:#231F20;" d="M37.185,34.88c-0.005-0.018-0.003-0.037-0.008-0.055l-4.785-16.814
		c-0.245-0.859-1.03-1.452-1.924-1.452s-1.679,0.593-1.924,1.453l-4.784,16.814c-0.005,0.017-0.003,0.036-0.007,0.053
		c-0.041,0.159-0.069,0.322-0.069,0.494s0.028,0.335,0.069,0.494c0.004,0.018,0.003,0.036,0.007,0.053l4.784,16.814
		c0.245,0.86,1.03,1.453,1.924,1.453s1.679-0.593,1.924-1.452l4.785-16.814c0.005-0.018,0.003-0.037,0.008-0.055
		c0.04-0.159,0.069-0.322,0.069-0.493S37.226,35.039,37.185,34.88z M30.469,25.866l2.136,7.507h-4.272L30.469,25.866z M30.469,44.88
		l-2.136-7.507h4.272L30.469,44.88z"/>
	<path style="fill:#231F20;" d="M35.902,10.394c0.747-1.072,1.188-2.372,1.188-3.774c0-3.65-2.97-6.62-6.621-6.62
		s-6.621,2.97-6.621,6.62c0,1.403,0.441,2.702,1.188,3.774C13.542,12.892,4.904,23.141,4.904,35.373
		c0,14.097,11.468,25.565,25.565,25.565S56.034,49.47,56.034,35.373C56.034,23.141,47.397,12.892,35.902,10.394z M30.469,4
		c1.445,0,2.621,1.176,2.621,2.62c0,1.445-1.176,2.621-2.621,2.621s-2.621-1.176-2.621-2.621C27.849,5.176,29.024,4,30.469,4z
		 M30.469,56.938c-11.891,0-21.565-9.674-21.565-21.565s9.674-21.565,21.565-21.565s21.565,9.674,21.565,21.565
		S42.36,56.938,30.469,56.938z"/>
</g>
<g>
</g>
<g>
</g>
<g>
</g>
<g>
</g>
<g>
</g>
<g>
</g>
<g>
</g>
<g>
</g>
<g>
</g>
<g>
</g>
<g>
</g>
<g>
</g>
<g>
</g>
<g>
</g>
<g>
</g>
</svg>
