<?xml version="1.0" encoding="iso-8859-1"?>
<!-- Generator: Adobe Illustrator 18.0.0, SVG Export Plug-In . SVG Version: 6.00 Build 0)  -->
<!DOCTYPE svg PUBLIC "-//W3C//DTD SVG 1.1//EN" "http://www.w3.org/Graphics/SVG/1.1/DTD/svg11.dtd">
<svg version="1.1" id="Capa_1" xmlns="http://www.w3.org/2000/svg" xmlns:xlink="http://www.w3.org/1999/xlink" x="0px" y="0px"
	 viewBox="0 0 60.684 60.684" style="enable-background:new 0 0 60.684 60.684;" xml:space="preserve">
<path style="fill:#231F20;" d="M57.684,54.153c-2.634,0-5.119-1.16-6.817-3.183c-0.57-0.679-1.411-1.071-2.297-1.071c0,0,0,0,0,0
	c-0.886,0-1.727,0.392-2.297,1.07c-1.7,2.023-4.186,3.184-6.818,3.184c-1.912,0-3.741-0.619-5.252-1.729
	c1.24-1.893,2.854-4.418,4.573-7.265c0.226,0.01,0.452,0.028,0.68,0.028c3.334,0,6.526-1.11,9.114-3.115
	c2.587,2.005,5.779,3.115,9.115,3.115c1.657,0,3-1.343,3-3s-1.343-3-3-3c-2.633,0-5.118-1.16-6.817-3.184
	c-0.57-0.679-1.411-1.07-2.297-1.07c0,0,0,0,0,0c-0.886,0-1.727,0.392-2.296,1.069c-1.01,1.201-2.299,2.089-3.728,2.62
	c3.778-6.898,7.105-14.254,7.105-18.786c0-10.646-8.661-19.307-19.308-19.307S11.034,9.191,11.034,19.837
	c0,4.532,3.327,11.889,7.106,18.787c-1.431-0.531-2.723-1.42-3.735-2.622c-0.57-0.678-1.41-1.068-2.295-1.068
	c-0.001,0-0.002,0-0.003,0c-0.886,0.001-1.727,0.394-2.296,1.072C8.116,38.028,5.633,39.188,3,39.188c-1.657,0-3,1.343-3,3
	s1.343,3,3,3c3.336,0,6.527-1.11,9.112-3.115c2.59,2.005,5.781,3.115,9.114,3.115c0.229,0,0.455-0.018,0.683-0.028
	c1.718,2.847,3.332,5.372,4.572,7.265c-1.513,1.11-3.343,1.73-5.255,1.73c-2.631,0-5.117-1.161-6.821-3.186
	c-0.57-0.678-1.41-1.068-2.295-1.068c-0.001,0-0.002,0-0.003,0c-0.886,0.001-1.727,0.394-2.296,1.072
	C8.116,52.994,5.634,54.153,3,54.153c-1.657,0-3,1.343-3,3s1.343,3,3,3c3.336,0,6.528-1.11,9.112-3.114
	c2.589,2.004,5.781,3.114,9.114,3.114c3.334,0,6.526-1.11,9.115-3.115c2.586,2.005,5.778,3.115,9.113,3.115
	c3.334,0,6.526-1.11,9.114-3.115c2.587,2.005,5.779,3.115,9.115,3.115c1.657,0,3-1.343,3-3S59.34,54.153,57.684,54.153z
	 M18.58,19.837c0-6.496,5.266-11.762,11.762-11.762c6.496,0,11.762,5.266,11.762,11.762S36.838,31.6,30.342,31.6
	S18.58,26.333,18.58,19.837z"/>
<g>
</g>
<g>
</g>
<g>
</g>
<g>
</g>
<g>
</g>
<g>
</g>
<g>
</g>
<g>
</g>
<g>
</g>
<g>
</g>
<g>
</g>
<g>
</g>
<g>
</g>
<g>
</g>
<g>
</g>
</svg>
