<svg width="0" height="0" class="hidden">
  <symbol xmlns="http://www.w3.org/2000/svg" viewBox="0 0 70.013 70.013" id="hamac-on-trees-svgrepo-com">
    <path d="M69.92 15.36c-2.632-3.692-6.538-5.811-10.718-5.811-2.562 0-5.071.82-7.258 2.371-2.588 1.835-4.473 4.537-5.53 7.598-.854-2.681-2.534-5.016-4.863-6.444-1.518-.93-3.225-1.422-4.938-1.422-3.381 0-6.568 1.871-8.527 5.005a.5.5 0 0 0 .547.749c2.039-.517 4.258-.472 6.401.132a.498.498 0 0 0 .632-.422l.079-.665.85 1.526a.5.5 0 0 0 .235.215c.7.307 1.269.599 1.79.919.42.257.856.56 1.334.927a.5.5 0 0 0 .803-.349l.049-.512.715 2.172a.48.48 0 0 0 .116.192c1.143 1.172 2.091 2.531 2.843 3.986-1.983-2.2-4.676-3.535-7.539-3.535-.611 0-1.229.06-1.837.178a9.94 9.94 0 0 0-3.651 1.528c-1.774-1.432-3.9-2.234-6.136-2.234-1.975 0-3.909.632-5.595 1.827-1.901 1.348-3.306 3.305-4.137 5.528-.687-1.934-1.938-3.61-3.642-4.654a7.332 7.332 0 0 0-3.821-1.1c-2.616 0-5.081 1.445-6.595 3.866a.5.5 0 0 0 .547.749c1.534-.391 3.202-.354 4.812.1a.502.502 0 0 0 .632-.422l.018-.141.468.841a.5.5 0 0 0 .235.215c.528.231.956.451 1.348.69.324.2.653.429 1.006.7.145.11.339.134.504.063a.509.509 0 0 0 .268-.279l.381 1.157a.48.48 0 0 0 .116.192 12.475 12.475 0 0 1 1.753 2.284c-1.458-1.345-3.299-2.143-5.244-2.143-.473 0-.951.047-1.421.138-4.107.801-7.093 4.983-6.944 9.729a.499.499 0 0 0 .904.278 11.438 11.438 0 0 1 4.037-3.458.501.501 0 0 0 .22-.67l-.162-.322.973.4c.114.045.237.05.354.01.559-.194 1.03-.326 1.485-.415.367-.071.762-.123 1.207-.159a.502.502 0 0 0 .401-.734l-.054-.1 1.062.748a.491.491 0 0 0 .247.09 10.2 10.2 0 0 1 3.849 1.103l-3.633 22.308a.502.502 0 0 0 .493.58h7.754a.5.5 0 0 0 .498-.541l-.615-7.495c2.999 1.503 7.272 2.417 12.178 2.417 3.955 0 7.495-.598 10.294-1.614l-1.084 6.653a.502.502 0 0 0 .493.58h10.186a.5.5 0 0 0 .488-.679l-1.148-13.987a.501.501 0 0 0-.599-.448l-2.097.437c.553-.857 1.401-2.164 2.3-3.526a.493.493 0 0 0 .08-.316l-.94-11.458a13.861 13.861 0 0 1 4.152-2.241.496.496 0 0 0 .212-.137l1.493-1.632-.189.614a.5.5 0 0 0 .558.641 13.762 13.762 0 0 1 1.547-.17c.61-.029 1.214-.007 1.954.064a.516.516 0 0 0 .337-.09l1.375-.976-.212.749a.504.504 0 0 0 .363.622 13.476 13.476 0 0 1 5.835 3.082.5.5 0 0 0 .829-.447c-.9-5.892-5.458-10.152-10.74-9.873-1.467.07-2.855.498-4.111 1.196l.766-2.862.221 1.457a.498.498 0 0 0 .824.301c.615-.54 1.18-.99 1.725-1.377a19.95 19.95 0 0 1 2.337-1.408.501.501 0 0 0 .219-.227l1.247-2.589.241 1.375a.5.5 0 0 0 .661.385c2.847-1.024 5.816-1.301 8.607-.802a.506.506 0 0 0 .511-.225.502.502 0 0 0-.019-.556zM20.462 30.736l.363-1.354.082.542a.5.5 0 0 0 .322.396c.061.022.125.018.188.016a7.526 7.526 0 0 0-.955.4zm1.213-.483c.018-.012.04-.013.056-.027.461-.404.887-.745 1.304-1.04a14.915 14.915 0 0 1 1.767-1.064.504.504 0 0 0 .218-.227l.788-1.637.12.683a.5.5 0 0 0 .661.384 13.5 13.5 0 0 1 1.778-.498 13.094 13.094 0 0 0-1.727 3.72 7.127 7.127 0 0 0-4.965-.294zm9.53 21.591c-6.094 0-10.484-1.491-12.48-3.097l-.917-11.17a10.387 10.387 0 0 1 3.074-1.649.496.496 0 0 0 .212-.137l.781-.854a.499.499 0 0 0 .568.603c.422-.068.803-.11 1.164-.128.5-.023.987.001 1.47.049a.53.53 0 0 0 .337-.09l.72-.511c.004.023.015.042.022.063l-.041.146a.504.504 0 0 0 .363.622 10.133 10.133 0 0 1 4.391 2.318.5.5 0 0 0 .829-.447c-.303-1.985-1.144-3.729-2.336-5.047.92-.798 1.93-1.487 3.01-2.038a.501.501 0 0 0 .22-.67l-.401-.799 1.665.685c.113.047.237.05.354.011a14.12 14.12 0 0 1 1.974-.55c.495-.097 1.02-.166 1.603-.212a.502.502 0 0 0 .402-.734l-.379-.708 1.931 1.361a.491.491 0 0 0 .248.09 13.52 13.52 0 0 1 5.215 1.525l-3.141 19.288c-2.355 1.167-6.089 2.08-10.858 2.08z"
      fill="#231f20"></path>
  </symbol>
  <symbol xmlns="http://www.w3.org/2000/svg" viewBox="0 0 487.194 487.194" id="head-svgrepo-com">
    <path d="M264.911 0c-28.5 0-55.4 6.4-79.5 17.8-63.6 29.5-107.6 93.8-107.6 168.5v30.9l-37.9 72.4c-9.6 18.3-.5 33.2 20.1 33.2h17.8v68.8c0 21.5 17.6 39.1 39.1 39.1l53.7-8 .1 53.7v.4c.3 6.9 6.1 11.4 13.3 10.2l193.5-34.2c7.3-1.3 13.3-8.4 13.3-15.8V323.2c37.1-34 60.3-82.9 60.3-137.1-.1-102.8-83.4-186.1-186.2-186.1zm95 282.6c-44.7 44.7-112.9 51.8-165 21.1l-.3-.2c-20.5 15.5-42.5 18.2-57.8 15.8-5.1-.8-6.2-7.7-1.5-10 14-6.9 22.9-20.6 28-31.7l-1.4-1.1c-47.3-53.4-45.4-135.1 5.7-186.2 53.1-53.1 139.2-53.1 192.3 0 53.1 53 53.1 139.2 0 192.3z"></path>
    <path d="M263.511 77.6c-60.1 0-109 48.9-109 109s48.9 109 109 109 109-48.9 109-109-48.9-109-109-109zm-32.2 34.4c-6.6 9.2-13 20.9-17.4 35.2h-21.4c8.6-15.6 22.3-28.1 38.8-35.2zm-45.7 97.6c-2.2-7.3-3.3-15-3.3-23s1.2-15.7 3.3-23h24.5c-1.2 7.2-1.9 14.8-1.9 23s.7 15.9 1.9 23h-24.5zm6.9 16.4h21.4c4.4 14.3 10.8 26 17.4 35.2-16.5-7.1-30.2-19.6-38.8-35.2zm62.8 38.3c-7.9-8-17.7-20.6-24.2-38.3h24.2v38.3zm0-54.7h-28.7c-1.4-7.1-2.2-14.7-2.2-23s.8-16 2.2-23h28.7v46zm0-62.4h-24.2c6.4-17.9 16.3-30.5 24.2-38.5v38.5zm79.2 0h-21.4c-4.4-14.3-10.8-26-17.4-35.2 16.5 7.1 30.2 19.6 38.8 35.2zm-62.8-38.3c7.9 8 17.7 20.6 24.2 38.3h-24.2v-38.3zm0 54.7h28.7c1.4 7.1 2.2 14.7 2.2 23s-.8 16-2.2 23h-28.7v-46zm0 62.4h24.2c-6.4 17.9-16.3 30.5-24.2 38.5V226zm24 35.2c6.6-9.2 13-20.9 17.4-35.2h21.4c-8.6 15.6-22.3 28.1-38.8 35.2zm21.2-51.6c1.2-7.2 1.9-14.8 1.9-23s-.7-15.9-1.9-23h24.5c2.2 7.3 3.3 15 3.3 23s-1.2 15.7-3.3 23h-24.5z"></path>
  </symbol>
  <symbol xmlns="http://www.w3.org/2000/svg" viewBox="0 0 68.676 68.676" id="hotel-cart-svgrepo-com">
    <path d="M41.104 11.034V6.766c0-3.73-3.035-6.766-6.766-6.766s-6.766 3.035-6.766 6.766v4.269C15.53 14.063 6.588 24.978 6.588 37.946v15.873a3 3 0 0 0 3 3h6.143a7.11 7.11 0 0 0-1.781 4.71 7.146 7.146 0 0 0 7.146 7.146 7.146 7.146 0 0 0 7.146-7.146 7.112 7.112 0 0 0-1.781-4.71h15.755a7.11 7.11 0 0 0-1.781 4.71 7.146 7.146 0 0 0 7.146 7.146 7.146 7.146 0 0 0 7.146-7.146 7.112 7.112 0 0 0-1.781-4.71h6.144a3 3 0 0 0 3-3V37.946c-.002-12.968-8.945-23.883-20.986-26.912zM30.572 6.766C30.572 4.689 32.261 3 34.338 3s3.766 1.689 3.766 3.766v3.693c-1.233-.168-2.488-.262-3.766-.262s-2.534.094-3.766.262V6.766zm8.089 22.172h-8.646v-1.681h8.646v1.681zm17.427 21.881h-6.393c.955-.836 1.571-2.05 1.571-3.416V33.498a4.564 4.564 0 0 0-4.559-4.56h-4.045v-2.596a3.088 3.088 0 0 0-3.084-3.085H29.099a3.088 3.088 0 0 0-3.084 3.085v2.596H21.97a4.565 4.565 0 0 0-4.56 4.56v13.905c0 1.366.616 2.58 1.571 3.416h-6.393V37.946c0-11.993 9.757-21.75 21.75-21.75s21.75 9.757 21.75 21.75v12.873z"
      fill="#231f20"></path>
  </symbol>
  <symbol xmlns="http://www.w3.org/2000/svg" viewBox="0 0 70.617 70.617" id="mountains-and-sun-svgrepo-com">
    <g fill="#231f20">
      <path d="M70.031 46.254L51.69 27.912a2 2 0 0 0-2.828 0l-7.281 7.28-13.553-13.553c-.75-.75-2.078-.75-2.828 0L.586 46.253A2 2 0 1 0 2 49.667l29.936-.003c.531 0 1.039-.211 1.414-.586l8.231-8.229 8.232 8.232a2 2 0 0 0 1.414.586l17.39.001a2 2 0 0 0 1.414-3.414z"></path>
      <circle cx="41.511" cy="25.66" r="4.711"></circle>
    </g>
  </symbol>
  <symbol xmlns="http://www.w3.org/2000/svg" viewBox="0 0 60.938 60.938" id="orientation-compass-svgrepo-com">
    <g fill="#231f20">
      <path d="M37.185 34.88c-.005-.018-.003-.037-.008-.055l-4.785-16.814a2 2 0 0 0-3.848.001L23.76 34.826c-.005.017-.003.036-.007.053-.041.159-.069.322-.069.494s.028.335.069.494c.004.018.003.036.007.053l4.784 16.814a2 2 0 0 0 3.848.001l4.785-16.814c.005-.018.003-.037.008-.055.04-.159.069-.322.069-.493s-.028-.334-.069-.493zm-6.716-9.014l2.136 7.507h-4.272l2.136-7.507zm0 19.014l-2.136-7.507h4.272l-2.136 7.507z"></path>
      <path d="M35.902 10.394A6.58 6.58 0 0 0 37.09 6.62c0-3.65-2.97-6.62-6.621-6.62s-6.621 2.97-6.621 6.62c0 1.403.441 2.702 1.188 3.774C13.542 12.892 4.904 23.141 4.904 35.373c0 14.097 11.468 25.565 25.565 25.565S56.034 49.47 56.034 35.373c0-12.232-8.637-22.481-20.132-24.979zM30.469 4a2.624 2.624 0 0 1 2.621 2.62c0 1.445-1.176 2.621-2.621 2.621s-2.621-1.176-2.621-2.621A2.625 2.625 0 0 1 30.469 4zm0 52.938c-11.891 0-21.565-9.674-21.565-21.565s9.674-21.565 21.565-21.565 21.565 9.674 21.565 21.565-9.674 21.565-21.565 21.565z"></path>
    </g>
  </symbol>
  <symbol xmlns="http://www.w3.org/2000/svg" viewBox="0 0 56 56" id="scuba-dive-goggles-svgrepo-com">
    <path d="M53 0a3 3 0 0 0-3 3v11.414c-5.088-4.135-12.979-6.748-22-6.748-15.701 0-28 7.907-28 18 0 7.727 7.228 14.375 18.416 16.939.8.183 1.643.029 2.329-.424L28 37.367l7.255 4.814a3.001 3.001 0 0 0 2.329.424c5.049-1.157 9.28-3.151 12.416-5.696V46c0 2.206-1.794 4-4 4H35c-2.206 0-4-1.794-4-4a3 3 0 1 0-6 0c0 5.514 4.486 10 10 10h11c5.514 0 10-4.486 10-10V3a3 3 0 0 0-3-3zM37.471 36.45l-7.812-5.183a3.003 3.003 0 0 0-3.318 0l-7.812 5.183C11.091 34.433 6 30.101 6 25.667c0-6.505 10.075-12 22-12s22 5.495 22 12c0 4.434-5.091 8.766-12.529 10.783z"
      fill="#231f20"></path>
  </symbol>
  <symbol xmlns="http://www.w3.org/2000/svg" viewBox="0 0 60.684 60.684" id="sea-placeholder-svgrepo-com">
    <path d="M57.684 54.153a8.882 8.882 0 0 1-6.817-3.183 3.002 3.002 0 0 0-4.594-.001 8.892 8.892 0 0 1-6.818 3.184 8.86 8.86 0 0 1-5.252-1.729 236.85 236.85 0 0 0 4.573-7.265c.226.01.452.028.68.028a14.86 14.86 0 0 0 9.114-3.115 14.857 14.857 0 0 0 9.115 3.115 3 3 0 1 0 0-6 8.883 8.883 0 0 1-6.817-3.184 3 3 0 0 0-4.593-.001 8.918 8.918 0 0 1-3.728 2.62c3.778-6.898 7.105-14.254 7.105-18.786C49.652 9.19 40.991.529 30.344.529s-19.31 8.662-19.31 19.308c0 4.532 3.327 11.889 7.106 18.787a8.935 8.935 0 0 1-3.735-2.622 2.997 2.997 0 0 0-2.295-1.068h-.003a3.003 3.003 0 0 0-2.296 1.072A8.87 8.87 0 0 1 3 39.188a3 3 0 1 0 0 6c3.336 0 6.527-1.11 9.112-3.115a14.867 14.867 0 0 0 9.114 3.115c.229 0 .455-.018.683-.028a235.128 235.128 0 0 0 4.572 7.265 8.874 8.874 0 0 1-5.255 1.73 8.9 8.9 0 0 1-6.821-3.186 2.997 2.997 0 0 0-2.295-1.068h-.003a3.003 3.003 0 0 0-2.296 1.072A8.87 8.87 0 0 1 3 54.153a3 3 0 1 0 0 6c3.336 0 6.528-1.11 9.112-3.114a14.87 14.87 0 0 0 9.114 3.114c3.334 0 6.526-1.11 9.115-3.115a14.851 14.851 0 0 0 9.113 3.115 14.86 14.86 0 0 0 9.114-3.115 14.857 14.857 0 0 0 9.115 3.115 3 3 0 0 0 .001-6zM18.58 19.837c0-6.496 5.266-11.762 11.762-11.762s11.762 5.266 11.762 11.762S36.838 31.6 30.342 31.6 18.58 26.333 18.58 19.837z"
      fill="#231f20"></path>
  </symbol>
  <symbol xmlns="http://www.w3.org/2000/svg" viewBox="0 0 450 450" id="skiing-glasses-svgrepo-com">
    <path d="M414.833 210.887v-11.062c0-25.951-19.845-50.172-54.445-66.473-36.866-17.359-102.459-23.828-135.144-23.828-35.304 0-100.727 7.392-135.629 23.828-34.602 16.301-54.446 40.521-54.446 66.473v11.062c-16.547 3.129-35.548 8.95-35.163 19.187.481 12.816 1.292 22.593 4.462 34.807 1.243 4.789 16.916 1.449 31.151-2.672 3.272 30.138 24.753 55.652 54.529 63.627 14.903 4.391 50.04 14.297 64.404 14.606.506.024 1.015.032 1.52.032 23.716 0 40.286-23.354 56.305-45.941 3.549-5 8.701-12.269 12.828-17.217 4.07 4.936 9.144 12.167 12.638 17.14 15.887 22.628 32.318 46.015 56.082 46.019h.005c.504 0 1.013-.008 1.518-.032 14.364-.31 49.5-10.216 64.405-14.606 29.774-7.975 51.256-33.489 54.529-63.627 14.235 4.121 29.908 7.461 31.15 2.672 3.171-12.214 3.981-21.99 4.462-34.807.385-10.238-18.615-16.059-35.161-19.188zm-339.191-17.54c0-7.3 9.769-19.749 31.218-29.851 9.274-4.371 22.693-8.214 37.771-11.334l-68.989 68.991v-27.806zm0 54.364v-11.992l86.792-86.791a455.16 455.16 0 0 1 18.843-2.584L75.887 251.737a33.983 33.983 0 0 1-.245-4.026zm298.718 0c0 15.296-10.33 28.698-25.12 32.593l-.569.163c-20.785 6.122-47.096 12.758-53.667 13.024-1.06-.613-3.837-2.553-8.622-8.127-5.013-5.834-10.303-13.365-15.414-20.644-14.422-20.536-26.875-38.268-45.723-38.268-18.787 0-31.341 17.692-45.872 38.185-5.182 7.304-10.539 14.853-15.611 20.704-4.865 5.605-7.676 7.547-8.735 8.149-6.603-.268-32.906-6.902-53.695-13.025l-.567-.162a33.528 33.528 0 0 1-15.124-8.652L213.29 143.999l-.215-.215c4.229-.172 8.311-.266 12.169-.266 36.456 0 92.531 8.025 117.898 19.978 21.448 10.102 31.217 22.551 31.217 29.851l.001 54.364z"></path>
  </symbol>
  <symbol xmlns="http://www.w3.org/2000/svg" viewBox="0 0 63.467 63.467" id="small-hand-bag-svgrepo-com">
    <path d="M55.54 15.01H43.418v-4.683a4.494 4.494 0 0 0-4.489-4.489h-14.39a4.494 4.494 0 0 0-4.489 4.489v4.683H7.927C3.556 15.01 0 18.566 0 22.937v26.765c0 4.371 3.556 7.927 7.927 7.927H55.54c4.371 0 7.927-3.556 7.927-7.927V22.937c0-4.371-3.556-7.927-7.927-7.927zm-10.303 6v30.618H18.229V21.01h27.008zM26.05 11.839h11.368v3.171H26.05v-3.171zM6 49.701V22.937c0-1.044.883-1.926 1.927-1.926h4.303v30.618H7.927C6.883 51.628 6 50.745 6 49.701zm51.467 0c0 1.044-.883 1.927-1.927 1.927h-4.303V21.01h4.303c1.044 0 1.927.882 1.927 1.926v26.765z"
      fill="#231f20"></path>
  </symbol>
  <symbol xmlns="http://www.w3.org/2000/svg" viewBox="0 0 63.976 63.976" id="tourist-tent-svgrepo-com">
    <path d="M62.445 59.429L35.489 14.633l6.069-10.086a3 3 0 0 0-5.14-3.094l-4.43 7.361-4.43-7.361a2.999 2.999 0 1 0-5.14 3.094l6.069 10.086L1.531 59.429a3 3 0 0 0 2.57 4.546h55.773a3 3 0 0 0 2.571-4.546zM28.988 25.437v17.77H24.96a3 3 0 0 0-3 3v11.769H9.408l19.58-32.539zM27.96 57.976v-8.769h8.055v8.769H27.96zm14.055 0V46.207a3 3 0 0 0-3-3h-4.027v-17.77l19.58 32.539H42.015z"
      fill="#231f20"></path>
  </symbol>
  <symbol xmlns="http://www.w3.org/2000/svg" viewBox="0 0 53.843 53.843" id="two-oxygen-bottles-with-mask-svgrepo-com">
    <path d="M50.593 32.002v-10.86c0-8.771-6.609-16.016-15.106-17.049-.603-2.249-2.635-3.914-5.075-3.914-2.388 0-4.382 1.598-5.032 3.775h-8.224C16.507 1.777 14.513.179 12.124.179A5.275 5.275 0 0 0 6.85 5.454v3.685C2.803 11.105 0 15.246 0 20.039v30.625a3 3 0 0 0 3 3h18.25l.019-.002.019.002h18.25a3 3 0 0 0 3-3V20.039c0-4.794-2.803-8.934-6.851-10.901V7.155c6.74 1.097 11.906 6.942 11.906 13.987v10.86c-1.882.632-3.25 2.392-3.25 4.484a1.5 1.5 0 1 0 3 0c0-.965.785-1.75 1.75-1.75s1.75.785 1.75 1.75a1.5 1.5 0 1 0 3 0c0-2.092-1.368-3.852-3.25-4.484zM21.269 12.101A12.187 12.187 0 0 0 17.4 9.138V6.954h7.738v2.185a12.158 12.158 0 0 0-3.869 2.962zM6 47.664V20.039c0-3.377 2.748-6.125 6.125-6.125s6.125 2.748 6.125 6.125v1.292h-4.167a1.5 1.5 0 1 0 0 3h4.167v5.667h-4.167a1.5 1.5 0 1 0 0 3h4.167v5.667h-4.167a1.5 1.5 0 1 0 0 3h4.167v6H6zm30.537-26.333H32.37a1.5 1.5 0 1 0 0 3h4.167v5.667H32.37a1.5 1.5 0 1 0 0 3h4.167v5.667H32.37a1.5 1.5 0 1 0 0 3h4.167v6h-12.25V20.039c0-3.377 2.748-6.125 6.125-6.125s6.125 2.748 6.125 6.125v1.292z"
      fill="#231f20"></path>
  </symbol>
  <symbol xmlns="http://www.w3.org/2000/svg" viewBox="0 0 62.811 62.811" id="two-pictures-svgrepo-com">
    <g fill="#231f20">
      <path d="M11.695 36.028l-.831 1.64a1 1 0 0 0 .524 1.382l1.709.676.026 1.838a1 1 0 0 0 1.107.98l1.827-.196.878 1.616a.998.998 0 0 0 1.436.354l1.526-1.023 1.527 1.023c.233.157.523.207.796.141.272-.067.505-.247.64-.494l.878-1.617 1.828.196a1 1 0 0 0 1.106-.98l.025-1.838 1.71-.676a.999.999 0 0 0 .524-1.383l-.832-1.64 1.2-1.394a.998.998 0 0 0-.179-1.467l-1.499-1.065.416-1.791a1 1 0 0 0-.839-1.217l-1.822-.248-.465-1.778a.998.998 0 0 0-1.309-.687l-1.728.627-1.238-1.359c-.379-.416-1.1-.416-1.479 0l-1.237 1.359-1.729-.627a1 1 0 0 0-1.309.687l-.464 1.778-1.822.248a1 1 0 0 0-.839 1.216l.416 1.791-1.498 1.065a1.002 1.002 0 0 0-.179 1.467l1.199 1.396zm2.774-1.123a5.436 5.436 0 0 1 5.429-5.43 5.436 5.436 0 0 1 5.43 5.43 5.436 5.436 0 0 1-5.43 5.43 5.435 5.435 0 0 1-5.429-5.43z"></path>
      <path d="M59.811 5.899h-46.76a3 3 0 0 0-3 3v7.166H3a3 3 0 0 0-3 3v34.848a3 3 0 0 0 3 3h46.76a3 3 0 0 0 3-3v-7.166h7.052a3 3 0 0 0 3-3V8.899a3 3 0 0 0-3.001-3zM46.76 22.065v13.471c-3.5-3.779-8.816-4.439-14.469-4.633a.98.98 0 0 0-1.013.795c-.1.477.158.955.61 1.134 2.692 1.067 4.26 2.342 4.932 4.011 1.266 3.144-1.037 5.846-3.394 7.205-4.367 2.519-9.939 2.81-13.749 2.81-.798 0-1.587-.015-2.359-.038-4.066-.12-8.033-.679-11.318-1.242V22.065h40.76zm10.051 18.682H52.76V19.065a3 3 0 0 0-3-3H16.052v-4.166h40.76v28.848z"></path>
    </g>
  </symbol>
  <symbol xmlns="http://www.w3.org/2000/svg" viewBox="0 0 66.461 66.461" id="two-surfing-boards-svgrepo-com">
    <path d="M19.24 0c-8.245 0-12 17.226-12 33.231s3.755 33.231 12 33.231c8.245 0 12-17.226 12-33.231S27.485 0 19.24 0zm-5.006 46.788a76.413 76.413 0 0 1-.656-5.5h11.325a76.413 76.413 0 0 1-.656 5.5H14.234zM47.221 0c-8.245 0-12 17.226-12 33.231s3.755 33.231 12 33.231 12-17.226 12-33.231S55.466 0 47.221 0zm6 33.231c0 2.83-.122 5.417-.318 7.807h-5.182V6.39c1.918 1.921 5.5 10.865 5.5 26.841zm-6.5-26.841v34.648h-5.182a95.084 95.084 0 0 1-.318-7.807c0-15.976 3.582-24.92 5.5-26.841zm-4.47 40.648h4.47v13.033c-1.269-1.27-3.262-5.606-4.47-13.033zm5.47 13.033V47.038h4.47c-1.208 7.427-3.201 11.763-4.47 13.033z"
      fill="#231f20"></path>
  </symbol>
  <symbol xmlns="http://www.w3.org/2000/svg" viewBox="0 0 54.438 54.438" id="world-wide-signal-svgrepo-com">
    <path d="M27.219 0C12.21 0 0 12.21 0 27.219s12.21 27.22 27.219 27.22 27.219-12.211 27.219-27.22S42.228 0 27.219 0zm20.632 37.852H37.697c.468-2.775.749-5.705.837-8.633h11.813a23.05 23.05 0 0 1-2.496 8.633zM27.219 50.438c-1.76 0-3.982-3.14-5.52-8.587h11.04c-1.538 5.448-3.76 8.587-5.52 8.587zm-6.435-12.586c-.465-2.558-.78-5.448-.875-8.633h14.619c-.095 3.185-.41 6.074-.875 8.633H20.784zM4.092 29.219h11.812c.088 2.928.369 5.858.837 8.633H6.588a23.05 23.05 0 0 1-2.496-8.633zm2.496-12.632h10.154a63.862 63.862 0 0 0-.837 8.632H4.092a23.04 23.04 0 0 1 2.496-8.632zM27.219 4c1.76 0 3.982 3.139 5.52 8.587h-11.04C23.237 7.139 25.459 4 27.219 4zm6.435 12.587c.465 2.558.78 5.447.875 8.632h-14.62c.095-3.185.41-6.074.875-8.632h12.87zm4.88 8.632a63.862 63.862 0 0 0-.837-8.632h10.154a23.04 23.04 0 0 1 2.496 8.632H38.534zm6.697-12.632h-8.369c-.734-2.904-1.7-5.507-2.89-7.582a23.283 23.283 0 0 1 11.259 7.582zM20.466 5.005c-1.19 2.076-2.156 4.679-2.89 7.582H9.207a23.283 23.283 0 0 1 11.259-7.582zM9.208 41.852h8.368c.734 2.904 1.7 5.506 2.89 7.582a23.29 23.29 0 0 1-11.258-7.582zm24.764 7.582c1.19-2.076 2.156-4.679 2.89-7.582h8.369a23.283 23.283 0 0 1-11.259 7.582z"
      fill="#231f20"></path>
  </symbol>
  <symbol xmlns="http://www.w3.org/2000/svg" viewBox="0 0 55.183 55.183" id="beach-bikini-svgrepo-com">
    <path d="M50.105 28.018H5.058a1.5 1.5 0 0 0-1.5 1.5v5.793a1.5 1.5 0 0 0 1.223 1.474c8.408 1.579 17.79 8.404 18.938 17.093a1.501 1.501 0 0 0 1.487 1.304h4.752a1.5 1.5 0 0 0 1.487-1.304c1.147-8.689 10.529-15.515 18.937-17.093a1.5 1.5 0 0 0 1.223-1.474v-5.793a1.5 1.5 0 0 0-1.5-1.5zm-1.5 3v1.205H6.558v-1.205h42.047zM28.697 52.183h-2.229c-1.669-7.766-8.819-14.046-16.351-16.959h34.93c-7.532 2.913-14.682 9.193-16.35 16.959zM4.973 25.47h45.236a1.5 1.5 0 0 0 .823-2.754L34.875 8.723c2.1-.285 3.764-2.066 3.81-4.236C38.738 2.066 36.812.054 34.33 0c-1.646 0-5.096 1.738-6.749 2.625-1.654-.887-5.11-2.624-6.811-2.624h-.001a4.395 4.395 0 0 0-4.292 4.485c.047 2.171 1.71 3.952 3.811 4.237L3.992 22.836a1.497 1.497 0 0 0-.423 1.658c.218.587.778.976 1.404.976zM27.581 6.375l9.121 7.899-9.121 7.729-9.121-7.729 9.121-7.899zm4.091 16.095l7.326-6.208 7.168 6.208H31.672zM34.327 3a1.393 1.393 0 0 1 1.359 1.422 1.396 1.396 0 0 1-1.388 1.359h-.029c-.45-.023-1.815-.627-3.389-1.465 1.609-.769 2.998-1.312 3.447-1.316zM19.476 4.421A1.392 1.392 0 0 1 20.831 3c.451.004 1.841.547 3.45 1.316-1.573.838-2.937 1.441-3.386 1.465h-.032c-.748 0-1.371-.61-1.387-1.36zm-3.311 11.841l7.326 6.208H8.997l7.168-6.208z"
      fill="#231f20"></path>
  </symbol>
  <symbol xmlns="http://www.w3.org/2000/svg" viewBox="0 0 60 60" id="beach-umbrella-svgrepo-com">
    <path d="M33 5.487V3a3 3 0 1 0-6 0v2.487C14.89 6.971 5.339 17.292 5.148 29.772a2.999 2.999 0 0 0 1.944 2.854C13.06 34.87 19.888 36.184 27 36.473V54h-9.235a3 3 0 1 0 0 6h24.47a3 3 0 1 0 0-6H33V36.473c7.112-.289 13.94-1.604 19.908-3.847a3 3 0 0 0 1.944-2.854C54.661 17.292 45.11 6.971 33 5.487zM17.893 15.759c-1.545 3.66-2.562 8.1-2.888 13.023a53.438 53.438 0 0 1-3.705-1.039c.62-4.784 3.066-9.009 6.593-11.984zm3.061 14.154c.419-8.319 3.058-14.638 6.046-17.268v17.816a64.992 64.992 0 0 1-6.046-.548zM33 12.645c2.987 2.629 5.627 8.949 6.046 17.268a65.334 65.334 0 0 1-6.046.549V12.645zm11.994 16.137c-.326-4.923-1.343-9.364-2.888-13.023 3.527 2.975 5.973 7.201 6.593 11.984-1.199.389-2.441.73-3.705 1.039z"
      fill="#231f20"></path>
  </symbol>
  <symbol xmlns="http://www.w3.org/2000/svg" viewBox="0 0 69.188 69.188" id="bike-svgrepo-com">
    <path d="M56.48 29.333c-.429 0-.853.023-1.271.064l-3.316-13.81a1.5 1.5 0 0 0-1.459-1.149h-5.161a1.5 1.5 0 0 0 0 3h3.979l1.122 4.674H28.005l-1.131-4.068h4.166a1.5 1.5 0 0 0 0-3H24.9a1.498 1.498 0 0 0-1.445 1.902l1.81 6.512-6.067 7.679a12.611 12.611 0 0 0-6.49-1.803C5.7 29.333 0 35.035 0 42.042s5.7 12.707 12.707 12.707c6.592 0 12.026-5.047 12.646-11.479h6.561c.132 0 .266-.017.399-.054.037-.01.07-.028.105-.041l.076-.029c.154-.065.292-.152.411-.258.008-.007.019-.01.027-.017l18.341-17.014 1.01 4.206c-4.947 1.74-8.509 6.446-8.509 11.98 0 7.007 5.7 12.707 12.707 12.707 7.007 0 12.707-5.7 12.707-12.707s-5.701-12.71-12.708-12.71zm-30.22-2.296l3.678 13.232h-4.661a12.674 12.674 0 0 0-3.698-7.309l4.681-5.923zm-6.554 8.294a9.684 9.684 0 0 1 2.54 4.938h-6.441l3.901-4.938zm-6.999 16.418C7.354 51.749 3 47.394 3 42.042s4.354-9.708 9.707-9.708c1.671 0 3.244.425 4.619 1.171L11.53 40.84a1.5 1.5 0 0 0 1.177 2.43h9.622c-.607 4.773-4.686 8.479-9.622 8.479zm19.99-12.755l-3.858-13.881h18.823L32.697 38.994zM56.48 51.749c-5.353 0-9.707-4.354-9.707-9.707 0-4.12 2.584-7.64 6.213-9.047l2.035 8.477a1.5 1.5 0 0 0 2.918-.702l-2.019-8.408c.186-.011.371-.028.56-.028 5.353 0 9.707 4.355 9.707 9.708s-4.354 9.707-9.707 9.707z"
      fill="#231f20"></path>
  </symbol>
  <symbol xmlns="http://www.w3.org/2000/svg" viewBox="0 0 65.311 65.311" id="boat-helm-svgrepo-com">
    <path d="M62.31 29.655h-2.411a27.307 27.307 0 0 0-6.841-15.281l3.226-3.226a1.5 1.5 0 1 0-2.121-2.121l-3.226 3.226a27.306 27.306 0 0 0-15.282-6.841V3a3 3 0 1 0-6 0v2.412a27.313 27.313 0 0 0-15.281 6.841l-3.226-3.226a1.5 1.5 0 1 0-2.121 2.121l3.226 3.226a27.306 27.306 0 0 0-6.841 15.282H3a3 3 0 1 0 0 6h2.411a27.313 27.313 0 0 0 6.841 15.282l-3.226 3.226a1.5 1.5 0 1 0 2.122 2.121l3.226-3.226A27.306 27.306 0 0 0 29.656 59.9v2.411a3 3 0 1 0 6 0V59.9a27.32 27.32 0 0 0 15.283-6.841l3.226 3.226c.293.293.677.439 1.061.439s.768-.146 1.061-.439a1.5 1.5 0 0 0 0-2.121l-3.226-3.226a27.306 27.306 0 0 0 6.841-15.282h2.411a3 3 0 1 0-.003-6.001zM48.268 19.164a20.566 20.566 0 0 1 4.805 10.491H37.776l10.492-10.491zm-12.613 8.371V12.237a20.558 20.558 0 0 1 10.492 4.806L35.655 27.535zm-6-.001L19.164 17.043a20.557 20.557 0 0 1 10.491-4.805v15.296zm-2.121 2.121H12.238a20.554 20.554 0 0 1 4.805-10.491l10.491 10.491zm0 6L17.043 46.147a20.566 20.566 0 0 1-4.805-10.491h15.296zm2.121 2.122v15.296a20.562 20.562 0 0 1-10.491-4.805l10.491-10.491zm6-.001l10.492 10.492a20.566 20.566 0 0 1-10.492 4.806V37.776zm2.121-2.121h15.296a20.554 20.554 0 0 1-4.805 10.491L37.776 35.655zm19.1-6h-.757a23.576 23.576 0 0 0-5.718-12.625l.532-.532a24.32 24.32 0 0 1 5.943 13.157zm-8.064-15.277l-.532.532a23.577 23.577 0 0 0-12.626-5.719v-.756a24.317 24.317 0 0 1 13.158 5.943zM29.655 8.435v.756a23.576 23.576 0 0 0-12.625 5.718l-.532-.532a24.323 24.323 0 0 1 13.157-5.942zm-15.278 8.064l.532.532a23.573 23.573 0 0 0-5.718 12.625h-.756a24.32 24.32 0 0 1 5.942-13.157zM8.435 35.655h.757A23.576 23.576 0 0 0 14.91 48.28l-.532.532a24.317 24.317 0 0 1-5.943-13.157zm8.063 15.278l.532-.532a23.565 23.565 0 0 0 12.625 5.718v.756a24.308 24.308 0 0 1-13.157-5.942zm19.157 5.943v-.756a23.57 23.57 0 0 0 12.626-5.719l.532.532a24.323 24.323 0 0 1-13.158 5.943zm15.278-8.064l-.532-.532a23.573 23.573 0 0 0 5.718-12.625h.757a24.317 24.317 0 0 1-5.943 13.157z"
      fill="#231f20"></path>
  </symbol>
  <symbol xmlns="http://www.w3.org/2000/svg" viewBox="0 0 60.008 60.008" id="butterfly-hunter-svgrepo-com">
    <g fill="#231f20">
      <path d="M40.417 31.843l-.017-.034-.018-.034L26.769 5.113a2.478 2.478 0 0 0-3.372-1.084L9.29 11.513C5.215 13.676 2.204 17.341.813 21.835c-1.391 4.493-.987 9.256 1.134 13.41 2.121 4.155 5.717 7.224 10.126 8.641 4.407 1.416 9.082 1.006 13.157-1.156l11.89-6.308 10.606 20.772a2.493 2.493 0 0 0 2.22 1.373 2.471 2.471 0 0 0 1.152-.289c1.225-.65 1.701-2.189 1.063-3.437L40.417 31.843zm-14.761 4.915l-2.086-4.086 2.879-1.527 2.086 4.086-2.879 1.527zm-3.472-6.798l-1.498-2.933 2.879-1.527 1.498 2.933-2.879 1.527zM7.166 34.2l5.321-2.823 1.498 2.933-4.56 2.419A12.232 12.232 0 0 1 7.166 34.2zM5.582 23.367a12.745 12.745 0 0 1 1.33-2.909l1.308 2.561-2.95 1.565c.083-.408.187-.814.312-1.217zm-.538 4.784l4.56-2.419 1.498 2.933-5.322 2.823c-.396-1.08-.647-2.2-.736-3.337zm12.167-15.095l2.086 4.085-2.879 1.527-2.086-4.085 2.879-1.527zm3.472 6.799l1.498 2.933-2.879 1.527-1.498-2.933 2.879-1.527zm7.774-.397l-3.616 1.918-1.498-2.933 3.616-1.918 1.498 2.933zm-11.815 6.268l-2.878 1.527-1.498-2.933 2.877-1.527 1.499 2.933zm-1.493 4.239l2.878-1.527 1.498 2.933-2.878 1.527-1.498-2.933zm11.076-5.877l3.616-1.918 1.498 2.933-3.616 1.918-1.498-2.933zM23.488 9.727l2.086 4.085-3.616 1.918-2.086-4.085 3.616-1.918zm-11.89 6.307l.074-.039 2.086 4.086-2.877 1.526-1.889-3.699a12.168 12.168 0 0 1 2.606-1.874zm.821 22.554l2.951-1.565 1.308 2.562a12.224 12.224 0 0 1-3.101-.559 12.547 12.547 0 0 1-1.158-.438zm7.502.722l-1.889-3.699 2.878-1.527 2.086 4.086-.074.04c-.961.508-1.97.867-3.001 1.1zm11.274-5.49l-2.086-4.086 3.616-1.918 2.086 4.085-3.616 1.919zM52.292 9.966c-.232 0-.462.015-.69.04.199-1.879-.403-3.83-1.813-5.268a6.236 6.236 0 0 0-4.481-1.892 6.236 6.236 0 0 0-4.481 1.892 6.48 6.48 0 0 0-1.856 4.567c0 .685.108 1.351.308 1.984a4.945 4.945 0 0 0-2.462 1.373c-1.951 1.99-1.951 5.227 0 7.216a4.927 4.927 0 0 0 3.54 1.495c.035 0 .068-.004.103-.005a5.14 5.14 0 0 0 1.459 3.711c.946.964 2.203 1.495 3.54 1.495s2.594-.531 3.54-1.495a5.095 5.095 0 0 0 1.343-2.511 6.237 6.237 0 0 0 6.431-1.577 6.48 6.48 0 0 0 1.856-4.567 6.48 6.48 0 0 0-1.856-4.567 6.235 6.235 0 0 0-4.481-1.891z"></path>
      <path d="M59.701 8.482a6.142 6.142 0 0 0-4.781-1.855 6.388 6.388 0 0 0-1.82-4.873 1.035 1.035 0 0 0-1.484 0 1.083 1.083 0 0 0 0 1.512 4.263 4.263 0 0 1 .987 4.364c-.129.386-.032.814.251 1.102.283.288.702.387 1.081.256a4.072 4.072 0 0 1 4.281 1.006 1.035 1.035 0 0 0 1.484 0 1.082 1.082 0 0 0 .001-1.512z"></path>
    </g>
  </symbol>
  <symbol xmlns="http://www.w3.org/2000/svg" viewBox="0 0 67.572 67.572" id="camping-tent-svgrepo-com">
    <path d="M66.982 52.779L36.196 11.222a2.998 2.998 0 0 0-4.82 0L.59 52.779a3 3 0 1 0 4.82 3.571l5.629-7.598v5.813a3 3 0 0 0 3 3h9.083a3 3 0 0 0 2.49-1.327l8.174-12.168 8.174 12.168a3 3 0 0 0 2.49 1.327h9.083a3 3 0 0 0 3-3v-5.813l5.629 7.598a2.994 2.994 0 0 0 2.412 1.214 3 3 0 0 0 2.408-4.785z"
      fill="#231f20"></path>
  </symbol>
  <symbol xmlns="http://www.w3.org/2000/svg" viewBox="0 0 74.713 74.713" id="canoe-with-rowing-svgrepo-com">
    <path d="M73.321 47.854l-14.604-7.215a2.499 2.499 0 0 0-3.349 1.134l-.468.945-6.154-3.04c.017-.799.026-1.576.026-2.321 0-12.796-2.404-34.452-11.416-34.452-7.155 0-10.142 13.648-11.071 25.677l-3.847-1.9.467-.946a2.5 2.5 0 0 0-1.134-3.349L7.167 15.172a2.501 2.501 0 0 0-3.348 1.134l-3.56 7.206a2.5 2.5 0 0 0 1.134 3.349l14.605 7.215a2.498 2.498 0 0 0 3.348-1.134l.435-.881 6.183 3.055c-.016.77-.025 1.521-.025 2.241 0 12.796 2.404 34.452 11.416 34.452 7.139 0 10.129-13.589 11.065-25.599l3.821 1.888-.435.881a2.497 2.497 0 0 0 1.134 3.348l14.605 7.216a2.498 2.498 0 0 0 3.348-1.134l3.56-7.206a2.499 2.499 0 0 0-1.132-3.349zM37.357 28.11c3.728 0 6.749 4.14 6.749 9.247l-.001.028-11.958-5.907c1.238-2.057 3.112-3.368 5.21-3.368zm0 18.494c-3.715 0-6.726-4.112-6.747-9.194l11.917 5.887c-1.239 2.021-3.094 3.307-5.17 3.307z"
      fill="#231f20"></path>
  </symbol>
  <symbol xmlns="http://www.w3.org/2000/svg" viewBox="0 0 63.153 63.153" id="chain-and-sun-svgrepo-com (1)">
    <g fill="#231f20">
      <path d="M62.101 25.68a2.997 2.997 0 0 0-4.229.335l-3.118 3.656-6.134-.021h-.01a3 3 0 0 0-2.282 1.053l-7.615 8.927H12.728a3 3 0 0 0-1.964.732l-9.728 8.424a2.998 2.998 0 0 0-.304 4.231 2.998 2.998 0 0 0 4.231.304l8.882-7.691h32.679l8.881 7.691a2.99 2.99 0 0 0 1.963.732 2.998 2.998 0 0 0 1.965-5.267l-7.476-6.474 10.578-12.401a3.002 3.002 0 0 0-.334-4.231z"></path>
      <circle cx="25.563" cy="23.622" r="6.356"></circle>
      <path d="M25.563 16.686a2.153 2.153 0 0 0 2.153-2.153c0-1.189-2.153-5.433-2.153-5.433s-2.153 4.244-2.153 5.433.964 2.153 2.153 2.153zM23.41 32.711c0 1.189 2.153 5.433 2.153 5.433s2.153-4.244 2.153-5.433a2.153 2.153 0 0 0-4.306 0zm11.242-11.242a2.153 2.153 0 0 0 0 4.306c1.189 0 5.433-2.153 5.433-2.153s-4.244-2.153-5.433-2.153zm-16.026 2.153c0-1.189-.964-2.153-2.153-2.153s-5.433 2.153-5.433 2.153 4.244 2.153 5.433 2.153 2.153-.964 2.153-2.153zm14.886-4.905c.841-.841 2.319-5.364 2.319-5.364s-4.523 1.479-5.364 2.32a2.152 2.152 0 1 0 3.045 3.044zm-15.899 9.81c-.841.841-2.32 5.364-2.32 5.364s4.523-1.479 5.364-2.32a2.152 2.152 0 1 0-3.044-3.044zm18.218 5.364s-1.479-4.523-2.32-5.364a2.152 2.152 0 1 0-3.044 3.044c.841.841 5.364 2.32 5.364 2.32zM20.658 18.717a2.152 2.152 0 0 0 0-3.044c-.841-.841-5.364-2.32-5.364-2.32s1.479 4.523 2.32 5.364c.84.841 2.203.841 3.044 0z"></path>
    </g>
  </symbol>
  <symbol xmlns="http://www.w3.org/2000/svg" viewBox="0 0 63.153 63.153" id="chain-and-sun-svgrepo-com">
    <g fill="#231f20">
      <path d="M62.101 25.68a2.997 2.997 0 0 0-4.229.335l-3.118 3.656-6.134-.021h-.01a3 3 0 0 0-2.282 1.053l-7.615 8.927H12.728a3 3 0 0 0-1.964.732l-9.728 8.424a2.998 2.998 0 0 0-.304 4.231 2.998 2.998 0 0 0 4.231.304l8.882-7.691h32.679l8.881 7.691a2.99 2.99 0 0 0 1.963.732 2.998 2.998 0 0 0 1.965-5.267l-7.476-6.474 10.578-12.401a3.002 3.002 0 0 0-.334-4.231z"></path>
      <circle cx="25.563" cy="23.622" r="6.356"></circle>
      <path d="M25.563 16.686a2.153 2.153 0 0 0 2.153-2.153c0-1.189-2.153-5.433-2.153-5.433s-2.153 4.244-2.153 5.433.964 2.153 2.153 2.153zM23.41 32.711c0 1.189 2.153 5.433 2.153 5.433s2.153-4.244 2.153-5.433a2.153 2.153 0 0 0-4.306 0zm11.242-11.242a2.153 2.153 0 0 0 0 4.306c1.189 0 5.433-2.153 5.433-2.153s-4.244-2.153-5.433-2.153zm-16.026 2.153c0-1.189-.964-2.153-2.153-2.153s-5.433 2.153-5.433 2.153 4.244 2.153 5.433 2.153 2.153-.964 2.153-2.153zm14.886-4.905c.841-.841 2.319-5.364 2.319-5.364s-4.523 1.479-5.364 2.32a2.152 2.152 0 1 0 3.045 3.044zm-15.899 9.81c-.841.841-2.32 5.364-2.32 5.364s4.523-1.479 5.364-2.32a2.152 2.152 0 1 0-3.044-3.044zm18.218 5.364s-1.479-4.523-2.32-5.364a2.152 2.152 0 1 0-3.044 3.044c.841.841 5.364 2.32 5.364 2.32zM20.658 18.717a2.152 2.152 0 0 0 0-3.044c-.841-.841-5.364-2.32-5.364-2.32s1.479 4.523 2.32 5.364c.84.841 2.203.841 3.044 0z"></path>
    </g>
  </symbol>
  <symbol xmlns="http://www.w3.org/2000/svg" viewBox="0 0 68.667 68.667" id="direction-arrows-svgrepo-com">
    <path d="M63.525 26.613l-4.285-7.421a2.999 2.999 0 0 0-2.598-1.5H37.334v-5.079C39.505 11.512 41 9.263 41 6.667 41 2.991 38.01 0 34.334 0s-6.667 2.991-6.667 6.667a6.667 6.667 0 0 0 3.667 5.945v5.079h-19.31a3 3 0 0 0-2.598 1.5l-4.285 7.421a3 3 0 0 0 0 3l4.285 7.422a2.998 2.998 0 0 0 2.598 1.5h19.31v27.132a3 3 0 1 0 6 0V38.535h19.309a2.999 2.999 0 0 0 2.598-1.5l4.285-7.422a2.997 2.997 0 0 0-.001-3z"
      fill="#231f20"></path>
  </symbol>
</svg>