<svg width="0" height="0" class="hidden">
  <symbol xmlns="http://www.w3.org/2000/svg" viewBox="0 0 512 512" id="instagram-social-media-svgrepo-com">
    <path d="M369.876 512H142.124C63.559 512 0 448.441 0 369.876V142.124C0 63.559 63.559 0 142.124 0h227.752C448.441 0 512 63.559 512 142.124v227.752C512 448.441 448.441 512 369.876 512" fill="#c04fbd"></path>
    <g fill="#fff">
      <path d="M388.414 141.241c0-9.71-7.945-17.655-17.655-17.655s-17.655 7.945-17.655 17.655 7.945 17.655 17.655 17.655c9.71.001 17.655-7.944 17.655-17.655M256 335.448c-42.372 0-79.448-37.076-79.448-79.448s37.076-79.448 79.448-79.448 79.448 37.076 79.448 79.448-37.076 79.448-79.448 79.448m0-194.207c-63.559 0-114.759 51.2-114.759 114.759S192.441 370.759 256 370.759 370.759 319.559 370.759 256 319.559 141.241 256 141.241"></path>
      <path d="M423.724 374.29c0 27.366-22.069 49.434-49.434 49.434H137.71c-27.366 0-49.434-22.069-49.434-49.434V137.71c0-27.366 22.069-49.434 49.434-49.434h236.58c27.366 0 49.434 22.069 49.434 49.434v236.58zM370.759 52.966H141.241c-48.552 0-88.276 39.724-88.276 88.276v229.517c0 48.552 39.724 88.276 88.276 88.276h229.517c48.552 0 88.276-39.724 88.276-88.276V141.241c0-48.551-39.724-88.275-88.275-88.275z"></path>
    </g>
  </symbol>
  <symbol xmlns="http://www.w3.org/2000/svg" viewBox="0 0 512.02 512.02" id="linkedin-social-media-svgrepo-com">
    <path d="M61.813 4.424c33.545 0 61.793 28.248 61.793 61.793 0 35.31-30.014 62.676-61.793 61.793C29.151 128.893.02 101.527.02 66.217-.863 31.789 27.386 4.424 61.813 4.424m34.428 503.172H25.62c-9.71 0-17.655-7.945-17.655-17.655V180.976c0-9.71 7.062-17.655 16.772-17.655H96.24c9.71 0 17.655 7.945 17.655 17.655v309.848c.001 8.827-7.944 16.772-17.654 16.772m414.896-236.579c0-65.324-48.552-116.524-113.876-116.524h-18.538c-35.31 0-69.738 16.772-88.276 44.138l-8.828 8.828v-35.31c0-3.531-5.297-8.828-8.828-8.828h-88.276c-3.531 0-8.828 3.531-8.828 7.945v329.269c0 3.531 5.297 7.062 8.828 7.062h97.103c3.531 0 8.828-3.531 8.828-7.062V309.858c0-32.662 24.717-60.028 57.379-60.91 16.772 0 31.779 6.179 43.255 17.655 10.593 10.593 15.007 25.6 15.007 42.372v189.793c0 3.531 5.297 8.828 8.828 8.828h88.276c3.531 0 8.828-5.297 8.828-8.828V271.017h-.882z" fill="#007aaa"></path>
  </symbol>
  <symbol xmlns="http://www.w3.org/2000/svg" viewBox="0 0 70.617 70.617" id="mountains-and-sun-svgrepo-com">
    <g fill="#231f20">
      <path d="M70.031 46.254L51.69 27.912a2 2 0 0 0-2.828 0l-7.281 7.28-13.553-13.553c-.75-.75-2.078-.75-2.828 0L.586 46.253A2 2 0 1 0 2 49.667l29.936-.003c.531 0 1.039-.211 1.414-.586l8.231-8.229 8.232 8.232a2 2 0 0 0 1.414.586l17.39.001a2 2 0 0 0 1.414-3.414z"></path>
      <circle cx="41.511" cy="25.66" r="4.711"></circle>
    </g>
  </symbol>
  <symbol xmlns="http://www.w3.org/2000/svg" viewBox="0 0 60.938 60.938" id="orientation-compass-svgrepo-com">
    <g fill="#231f20">
      <path d="M37.185 34.88c-.005-.018-.003-.037-.008-.055l-4.785-16.814a2 2 0 0 0-3.848.001L23.76 34.826c-.005.017-.003.036-.007.053-.041.159-.069.322-.069.494s.028.335.069.494c.004.018.003.036.007.053l4.784 16.814a2 2 0 0 0 3.848.001l4.785-16.814c.005-.018.003-.037.008-.055.04-.159.069-.322.069-.493s-.028-.334-.069-.493zm-6.716-9.014l2.136 7.507h-4.272l2.136-7.507zm0 19.014l-2.136-7.507h4.272l-2.136 7.507z"></path>
      <path d="M35.902 10.394A6.58 6.58 0 0 0 37.09 6.62c0-3.65-2.97-6.62-6.621-6.62s-6.621 2.97-6.621 6.62c0 1.403.441 2.702 1.188 3.774C13.542 12.892 4.904 23.141 4.904 35.373c0 14.097 11.468 25.565 25.565 25.565S56.034 49.47 56.034 35.373c0-12.232-8.637-22.481-20.132-24.979zM30.469 4a2.624 2.624 0 0 1 2.621 2.62c0 1.445-1.176 2.621-2.621 2.621s-2.621-1.176-2.621-2.621A2.625 2.625 0 0 1 30.469 4zm0 52.938c-11.891 0-21.565-9.674-21.565-21.565s9.674-21.565 21.565-21.565 21.565 9.674 21.565 21.565-9.674 21.565-21.565 21.565z"></path>
    </g>
  </symbol>
  <symbol xmlns="http://www.w3.org/2000/svg" viewBox="0 0 512.883 512.883" id="pinterest-social-media-svgrepo-com">
    <path d="M256.441 0C115.2 0 .441 114.759.441 256c0 105.048 62.676 195.09 153.6 234.814-.883-17.655 0-39.724 4.414-59.145 5.297-21.186 32.662-139.476 32.662-139.476s-7.945-16.772-7.945-40.607c0-37.959 22.069-66.207 49.434-66.207 22.952 0 34.428 17.655 34.428 38.841 0 22.952-15.007 58.262-22.952 90.924-6.179 27.366 13.241 49.434 40.607 49.434 48.552 0 81.214-62.676 81.214-135.945 0-56.497-37.959-97.986-106.814-97.986-77.683 0-126.234 58.262-126.234 122.703 0 22.069 6.179 37.959 16.772 50.317 4.414 5.297 5.297 7.945 3.531 14.124-.883 4.414-4.414 15.89-5.297 20.303-1.766 6.179-7.062 8.828-13.241 6.179-36.193-15.007-52.083-53.848-52.083-97.986 0-72.386 60.91-159.779 182.731-159.779 97.986 0 162.428 70.621 162.428 146.538 0 100.634-55.614 175.669-137.71 175.669-27.366 0-53.848-15.007-62.676-31.779 0 0-15.007 59.145-17.655 70.621-5.297 19.421-15.89 39.724-25.6 54.731 22.952 7.062 47.669 10.593 72.386 10.593 141.241 0 256-114.759 256-256S397.683 0 256.441 0" fill="#cb1f24"></path>
  </symbol>
  <symbol xmlns="http://www.w3.org/2000/svg" viewBox="0 0 56 56" id="scuba-dive-goggles-svgrepo-com">
    <path d="M53 0a3 3 0 0 0-3 3v11.414c-5.088-4.135-12.979-6.748-22-6.748-15.701 0-28 7.907-28 18 0 7.727 7.228 14.375 18.416 16.939.8.183 1.643.029 2.329-.424L28 37.367l7.255 4.814a3.001 3.001 0 0 0 2.329.424c5.049-1.157 9.28-3.151 12.416-5.696V46c0 2.206-1.794 4-4 4H35c-2.206 0-4-1.794-4-4a3 3 0 1 0-6 0c0 5.514 4.486 10 10 10h11c5.514 0 10-4.486 10-10V3a3 3 0 0 0-3-3zM37.471 36.45l-7.812-5.183a3.003 3.003 0 0 0-3.318 0l-7.812 5.183C11.091 34.433 6 30.101 6 25.667c0-6.505 10.075-12 22-12s22 5.495 22 12c0 4.434-5.091 8.766-12.529 10.783z" fill="#231f20"></path>
  </symbol>
  <symbol xmlns="http://www.w3.org/2000/svg" viewBox="0 0 60.684 60.684" id="sea-placeholder-svgrepo-com">
    <path d="M57.684 54.153a8.882 8.882 0 0 1-6.817-3.183 3.002 3.002 0 0 0-4.594-.001 8.892 8.892 0 0 1-6.818 3.184 8.86 8.86 0 0 1-5.252-1.729 236.85 236.85 0 0 0 4.573-7.265c.226.01.452.028.68.028a14.86 14.86 0 0 0 9.114-3.115 14.857 14.857 0 0 0 9.115 3.115 3 3 0 1 0 0-6 8.883 8.883 0 0 1-6.817-3.184 3 3 0 0 0-4.593-.001 8.918 8.918 0 0 1-3.728 2.62c3.778-6.898 7.105-14.254 7.105-18.786C49.652 9.19 40.991.529 30.344.529s-19.31 8.662-19.31 19.308c0 4.532 3.327 11.889 7.106 18.787a8.935 8.935 0 0 1-3.735-2.622 2.997 2.997 0 0 0-2.295-1.068h-.003a3.003 3.003 0 0 0-2.296 1.072A8.87 8.87 0 0 1 3 39.188a3 3 0 1 0 0 6c3.336 0 6.527-1.11 9.112-3.115a14.867 14.867 0 0 0 9.114 3.115c.229 0 .455-.018.683-.028a235.128 235.128 0 0 0 4.572 7.265 8.874 8.874 0 0 1-5.255 1.73 8.9 8.9 0 0 1-6.821-3.186 2.997 2.997 0 0 0-2.295-1.068h-.003a3.003 3.003 0 0 0-2.296 1.072A8.87 8.87 0 0 1 3 54.153a3 3 0 1 0 0 6c3.336 0 6.528-1.11 9.112-3.114a14.87 14.87 0 0 0 9.114 3.114c3.334 0 6.526-1.11 9.115-3.115a14.851 14.851 0 0 0 9.113 3.115 14.86 14.86 0 0 0 9.114-3.115 14.857 14.857 0 0 0 9.115 3.115 3 3 0 0 0 .001-6zM18.58 19.837c0-6.496 5.266-11.762 11.762-11.762s11.762 5.266 11.762 11.762S36.838 31.6 30.342 31.6 18.58 26.333 18.58 19.837z" fill="#231f20"></path>
  </symbol>
  <symbol xmlns="http://www.w3.org/2000/svg" viewBox="0 0 511.537 511.537" id="twitter-social-media-svgrepo-com">
    <path d="M357.038 49.172c-59.284.898-105.993 52.098-105.993 111.382v14.372C145.052 156.063 92.954 127.319 35.466 67.137c-34.133 66.47 3.593 122.161 44.912 152.702-27.846 0-51.2-3.593-69.165-19.761-1.796-.898-3.593 0-2.695 1.797 15.27 55.691 67.368 96.112 107.789 107.789-36.828 0-61.081 5.389-87.13-10.779-1.796-.898-3.593 0-2.695 1.796 19.761 54.793 59.284 71.86 116.772 71.86-28.744 21.558-67.368 43.116-140.126 44.912-2.695 0-4.491 3.593-1.796 5.389 26.947 22.456 93.418 39.523 186.835 39.523 153.6 0 278.456-136.533 278.456-305.404v-8.982c24.253-8.982 37.726-30.54 44.912-52.098 0-.898-.898-1.796-1.797-1.796l-51.2 17.965c-.898 0-1.796-1.796-.898-2.695 21.56-17.067 37.728-38.625 44.914-59.285 0 0-.898-.898-1.797-.898-24.253 9.881-47.607 19.761-65.572 25.151-2.695.898-6.288.898-8.982-.898-11.677-6.288-46.709-24.253-69.165-24.253" fill="#65bbf2"></path>
  </symbol>
  <symbol xmlns="http://www.w3.org/2000/svg" viewBox="0 0 53.843 53.843" id="two-oxygen-bottles-with-mask-svgrepo-com">
    <path d="M50.593 32.002v-10.86c0-8.771-6.609-16.016-15.106-17.049-.603-2.249-2.635-3.914-5.075-3.914-2.388 0-4.382 1.598-5.032 3.775h-8.224C16.507 1.777 14.513.179 12.124.179A5.275 5.275 0 0 0 6.85 5.454v3.685C2.803 11.105 0 15.246 0 20.039v30.625a3 3 0 0 0 3 3h18.25l.019-.002.019.002h18.25a3 3 0 0 0 3-3V20.039c0-4.794-2.803-8.934-6.851-10.901V7.155c6.74 1.097 11.906 6.942 11.906 13.987v10.86c-1.882.632-3.25 2.392-3.25 4.484a1.5 1.5 0 1 0 3 0c0-.965.785-1.75 1.75-1.75s1.75.785 1.75 1.75a1.5 1.5 0 1 0 3 0c0-2.092-1.368-3.852-3.25-4.484zM21.269 12.101A12.187 12.187 0 0 0 17.4 9.138V6.954h7.738v2.185a12.158 12.158 0 0 0-3.869 2.962zM6 47.664V20.039c0-3.377 2.748-6.125 6.125-6.125s6.125 2.748 6.125 6.125v1.292h-4.167a1.5 1.5 0 1 0 0 3h4.167v5.667h-4.167a1.5 1.5 0 1 0 0 3h4.167v5.667h-4.167a1.5 1.5 0 1 0 0 3h4.167v6H6zm30.537-26.333H32.37a1.5 1.5 0 1 0 0 3h4.167v5.667H32.37a1.5 1.5 0 1 0 0 3h4.167v5.667H32.37a1.5 1.5 0 1 0 0 3h4.167v6h-12.25V20.039c0-3.377 2.748-6.125 6.125-6.125s6.125 2.748 6.125 6.125v1.292z" fill="#231f20"></path>
  </symbol>
  <symbol xmlns="http://www.w3.org/2000/svg" viewBox="0 0 62.811 62.811" id="two-pictures-svgrepo-com">
    <g fill="#231f20">
      <path d="M11.695 36.028l-.831 1.64a1 1 0 0 0 .524 1.382l1.709.676.026 1.838a1 1 0 0 0 1.107.98l1.827-.196.878 1.616a.998.998 0 0 0 1.436.354l1.526-1.023 1.527 1.023c.233.157.523.207.796.141.272-.067.505-.247.64-.494l.878-1.617 1.828.196a1 1 0 0 0 1.106-.98l.025-1.838 1.71-.676a.999.999 0 0 0 .524-1.383l-.832-1.64 1.2-1.394a.998.998 0 0 0-.179-1.467l-1.499-1.065.416-1.791a1 1 0 0 0-.839-1.217l-1.822-.248-.465-1.778a.998.998 0 0 0-1.309-.687l-1.728.627-1.238-1.359c-.379-.416-1.1-.416-1.479 0l-1.237 1.359-1.729-.627a1 1 0 0 0-1.309.687l-.464 1.778-1.822.248a1 1 0 0 0-.839 1.216l.416 1.791-1.498 1.065a1.002 1.002 0 0 0-.179 1.467l1.199 1.396zm2.774-1.123a5.436 5.436 0 0 1 5.429-5.43 5.436 5.436 0 0 1 5.43 5.43 5.436 5.436 0 0 1-5.43 5.43 5.435 5.435 0 0 1-5.429-5.43z"></path>
      <path d="M59.811 5.899h-46.76a3 3 0 0 0-3 3v7.166H3a3 3 0 0 0-3 3v34.848a3 3 0 0 0 3 3h46.76a3 3 0 0 0 3-3v-7.166h7.052a3 3 0 0 0 3-3V8.899a3 3 0 0 0-3.001-3zM46.76 22.065v13.471c-3.5-3.779-8.816-4.439-14.469-4.633a.98.98 0 0 0-1.013.795c-.1.477.158.955.61 1.134 2.692 1.067 4.26 2.342 4.932 4.011 1.266 3.144-1.037 5.846-3.394 7.205-4.367 2.519-9.939 2.81-13.749 2.81-.798 0-1.587-.015-2.359-.038-4.066-.12-8.033-.679-11.318-1.242V22.065h40.76zm10.051 18.682H52.76V19.065a3 3 0 0 0-3-3H16.052v-4.166h40.76v28.848z"></path>
    </g>
  </symbol>
  <symbol xmlns="http://www.w3.org/2000/svg" viewBox="0 0 54.438 54.438" id="world-wide-signal-svgrepo-com">
    <path d="M27.219 0C12.21 0 0 12.21 0 27.219s12.21 27.22 27.219 27.22 27.219-12.211 27.219-27.22S42.228 0 27.219 0zm20.632 37.852H37.697c.468-2.775.749-5.705.837-8.633h11.813a23.05 23.05 0 0 1-2.496 8.633zM27.219 50.438c-1.76 0-3.982-3.14-5.52-8.587h11.04c-1.538 5.448-3.76 8.587-5.52 8.587zm-6.435-12.586c-.465-2.558-.78-5.448-.875-8.633h14.619c-.095 3.185-.41 6.074-.875 8.633H20.784zM4.092 29.219h11.812c.088 2.928.369 5.858.837 8.633H6.588a23.05 23.05 0 0 1-2.496-8.633zm2.496-12.632h10.154a63.862 63.862 0 0 0-.837 8.632H4.092a23.04 23.04 0 0 1 2.496-8.632zM27.219 4c1.76 0 3.982 3.139 5.52 8.587h-11.04C23.237 7.139 25.459 4 27.219 4zm6.435 12.587c.465 2.558.78 5.447.875 8.632h-14.62c.095-3.185.41-6.074.875-8.632h12.87zm4.88 8.632a63.862 63.862 0 0 0-.837-8.632h10.154a23.04 23.04 0 0 1 2.496 8.632H38.534zm6.697-12.632h-8.369c-.734-2.904-1.7-5.507-2.89-7.582a23.283 23.283 0 0 1 11.259 7.582zM20.466 5.005c-1.19 2.076-2.156 4.679-2.89 7.582H9.207a23.283 23.283 0 0 1 11.259-7.582zM9.208 41.852h8.368c.734 2.904 1.7 5.506 2.89 7.582a23.29 23.29 0 0 1-11.258-7.582zm24.764 7.582c1.19-2.076 2.156-4.679 2.89-7.582h8.369a23.283 23.283 0 0 1-11.259 7.582z" fill="#231f20"></path>
  </symbol>
  <symbol xmlns="http://www.w3.org/2000/svg" viewBox="0 0 69.188 69.188" id="bike-svgrepo-com">
    <path d="M56.48 29.333c-.429 0-.853.023-1.271.064l-3.316-13.81a1.5 1.5 0 0 0-1.459-1.149h-5.161a1.5 1.5 0 0 0 0 3h3.979l1.122 4.674H28.005l-1.131-4.068h4.166a1.5 1.5 0 0 0 0-3H24.9a1.498 1.498 0 0 0-1.445 1.902l1.81 6.512-6.067 7.679a12.611 12.611 0 0 0-6.49-1.803C5.7 29.333 0 35.035 0 42.042s5.7 12.707 12.707 12.707c6.592 0 12.026-5.047 12.646-11.479h6.561c.132 0 .266-.017.399-.054.037-.01.07-.028.105-.041l.076-.029c.154-.065.292-.152.411-.258.008-.007.019-.01.027-.017l18.341-17.014 1.01 4.206c-4.947 1.74-8.509 6.446-8.509 11.98 0 7.007 5.7 12.707 12.707 12.707 7.007 0 12.707-5.7 12.707-12.707s-5.701-12.71-12.708-12.71zm-30.22-2.296l3.678 13.232h-4.661a12.674 12.674 0 0 0-3.698-7.309l4.681-5.923zm-6.554 8.294a9.684 9.684 0 0 1 2.54 4.938h-6.441l3.901-4.938zm-6.999 16.418C7.354 51.749 3 47.394 3 42.042s4.354-9.708 9.707-9.708c1.671 0 3.244.425 4.619 1.171L11.53 40.84a1.5 1.5 0 0 0 1.177 2.43h9.622c-.607 4.773-4.686 8.479-9.622 8.479zm19.99-12.755l-3.858-13.881h18.823L32.697 38.994zM56.48 51.749c-5.353 0-9.707-4.354-9.707-9.707 0-4.12 2.584-7.64 6.213-9.047l2.035 8.477a1.5 1.5 0 0 0 2.918-.702l-2.019-8.408c.186-.011.371-.028.56-.028 5.353 0 9.707 4.355 9.707 9.708s-4.354 9.707-9.707 9.707z" fill="#231f20"></path>
  </symbol>
  <symbol xmlns="http://www.w3.org/2000/svg" viewBox="0 0 67.572 67.572" id="camping-tent-svgrepo-com">
    <path d="M66.982 52.779L36.196 11.222a2.998 2.998 0 0 0-4.82 0L.59 52.779a3 3 0 1 0 4.82 3.571l5.629-7.598v5.813a3 3 0 0 0 3 3h9.083a3 3 0 0 0 2.49-1.327l8.174-12.168 8.174 12.168a3 3 0 0 0 2.49 1.327h9.083a3 3 0 0 0 3-3v-5.813l5.629 7.598a2.994 2.994 0 0 0 2.412 1.214 3 3 0 0 0 2.408-4.785z" fill="#231f20"></path>
  </symbol>
  <symbol xmlns="http://www.w3.org/2000/svg" viewBox="0 0 74.713 74.713" id="canoe-with-rowing-svgrepo-com">
    <path d="M73.321 47.854l-14.604-7.215a2.499 2.499 0 0 0-3.349 1.134l-.468.945-6.154-3.04c.017-.799.026-1.576.026-2.321 0-12.796-2.404-34.452-11.416-34.452-7.155 0-10.142 13.648-11.071 25.677l-3.847-1.9.467-.946a2.5 2.5 0 0 0-1.134-3.349L7.167 15.172a2.501 2.501 0 0 0-3.348 1.134l-3.56 7.206a2.5 2.5 0 0 0 1.134 3.349l14.605 7.215a2.498 2.498 0 0 0 3.348-1.134l.435-.881 6.183 3.055c-.016.77-.025 1.521-.025 2.241 0 12.796 2.404 34.452 11.416 34.452 7.139 0 10.129-13.589 11.065-25.599l3.821 1.888-.435.881a2.497 2.497 0 0 0 1.134 3.348l14.605 7.216a2.498 2.498 0 0 0 3.348-1.134l3.56-7.206a2.499 2.499 0 0 0-1.132-3.349zM37.357 28.11c3.728 0 6.749 4.14 6.749 9.247l-.001.028-11.958-5.907c1.238-2.057 3.112-3.368 5.21-3.368zm0 18.494c-3.715 0-6.726-4.112-6.747-9.194l11.917 5.887c-1.239 2.021-3.094 3.307-5.17 3.307z" fill="#231f20"></path>
  </symbol>
  <symbol xmlns="http://www.w3.org/2000/svg" viewBox="0 0 68.667 68.667" id="direction-arrows-svgrepo-com">
    <path d="M63.525 26.613l-4.285-7.421a2.999 2.999 0 0 0-2.598-1.5H37.334v-5.079C39.505 11.512 41 9.263 41 6.667 41 2.991 38.01 0 34.334 0s-6.667 2.991-6.667 6.667a6.667 6.667 0 0 0 3.667 5.945v5.079h-19.31a3 3 0 0 0-2.598 1.5l-4.285 7.421a3 3 0 0 0 0 3l4.285 7.422a2.998 2.998 0 0 0 2.598 1.5h19.31v27.132a3 3 0 1 0 6 0V38.535h19.309a2.999 2.999 0 0 0 2.598-1.5l4.285-7.422a2.997 2.997 0 0 0-.001-3z" fill="#231f20"></path>
  </symbol>
  <symbol xmlns="http://www.w3.org/2000/svg" viewBox="0 0 512 512" id="facebook-social-media-svgrepo-com">
    <path d="M476.69 512H35.31C15.89 512 0 496.11 0 476.69V35.31C0 15.89 15.89 0 35.31 0h441.38C496.11 0 512 15.89 512 35.31v441.38c0 19.42-15.89 35.31-35.31 35.31" fill="#4d6fa9"></path>
    <path d="M432.552 88.276v88.276h-79.448c-9.71 0-17.655 7.945-17.655 17.655v52.966h88.276v88.276h-88.276V512h-88.276V335.448h-70.621v-88.276h70.621v-52.966c0-55.614 42.372-101.517 97.103-105.931h88.276z" fill="#fff"></path>
  </symbol>
  <symbol xmlns="http://www.w3.org/2000/svg" viewBox="0 0 70.013 70.013" id="hamac-on-trees-svgrepo-com">
    <path d="M69.92 15.36c-2.632-3.692-6.538-5.811-10.718-5.811-2.562 0-5.071.82-7.258 2.371-2.588 1.835-4.473 4.537-5.53 7.598-.854-2.681-2.534-5.016-4.863-6.444-1.518-.93-3.225-1.422-4.938-1.422-3.381 0-6.568 1.871-8.527 5.005a.5.5 0 0 0 .547.749c2.039-.517 4.258-.472 6.401.132a.498.498 0 0 0 .632-.422l.079-.665.85 1.526a.5.5 0 0 0 .235.215c.7.307 1.269.599 1.79.919.42.257.856.56 1.334.927a.5.5 0 0 0 .803-.349l.049-.512.715 2.172a.48.48 0 0 0 .116.192c1.143 1.172 2.091 2.531 2.843 3.986-1.983-2.2-4.676-3.535-7.539-3.535-.611 0-1.229.06-1.837.178a9.94 9.94 0 0 0-3.651 1.528c-1.774-1.432-3.9-2.234-6.136-2.234-1.975 0-3.909.632-5.595 1.827-1.901 1.348-3.306 3.305-4.137 5.528-.687-1.934-1.938-3.61-3.642-4.654a7.332 7.332 0 0 0-3.821-1.1c-2.616 0-5.081 1.445-6.595 3.866a.5.5 0 0 0 .547.749c1.534-.391 3.202-.354 4.812.1a.502.502 0 0 0 .632-.422l.018-.141.468.841a.5.5 0 0 0 .235.215c.528.231.956.451 1.348.69.324.2.653.429 1.006.7.145.11.339.134.504.063a.509.509 0 0 0 .268-.279l.381 1.157a.48.48 0 0 0 .116.192 12.475 12.475 0 0 1 1.753 2.284c-1.458-1.345-3.299-2.143-5.244-2.143-.473 0-.951.047-1.421.138-4.107.801-7.093 4.983-6.944 9.729a.499.499 0 0 0 .904.278 11.438 11.438 0 0 1 4.037-3.458.501.501 0 0 0 .22-.67l-.162-.322.973.4c.114.045.237.05.354.01.559-.194 1.03-.326 1.485-.415.367-.071.762-.123 1.207-.159a.502.502 0 0 0 .401-.734l-.054-.1 1.062.748a.491.491 0 0 0 .247.09 10.2 10.2 0 0 1 3.849 1.103l-3.633 22.308a.502.502 0 0 0 .493.58h7.754a.5.5 0 0 0 .498-.541l-.615-7.495c2.999 1.503 7.272 2.417 12.178 2.417 3.955 0 7.495-.598 10.294-1.614l-1.084 6.653a.502.502 0 0 0 .493.58h10.186a.5.5 0 0 0 .488-.679l-1.148-13.987a.501.501 0 0 0-.599-.448l-2.097.437c.553-.857 1.401-2.164 2.3-3.526a.493.493 0 0 0 .08-.316l-.94-11.458a13.861 13.861 0 0 1 4.152-2.241.496.496 0 0 0 .212-.137l1.493-1.632-.189.614a.5.5 0 0 0 .558.641 13.762 13.762 0 0 1 1.547-.17c.61-.029 1.214-.007 1.954.064a.516.516 0 0 0 .337-.09l1.375-.976-.212.749a.504.504 0 0 0 .363.622 13.476 13.476 0 0 1 5.835 3.082.5.5 0 0 0 .829-.447c-.9-5.892-5.458-10.152-10.74-9.873-1.467.07-2.855.498-4.111 1.196l.766-2.862.221 1.457a.498.498 0 0 0 .824.301c.615-.54 1.18-.99 1.725-1.377a19.95 19.95 0 0 1 2.337-1.408.501.501 0 0 0 .219-.227l1.247-2.589.241 1.375a.5.5 0 0 0 .661.385c2.847-1.024 5.816-1.301 8.607-.802a.506.506 0 0 0 .511-.225.502.502 0 0 0-.019-.556zM20.462 30.736l.363-1.354.082.542a.5.5 0 0 0 .322.396c.061.022.125.018.188.016a7.526 7.526 0 0 0-.955.4zm1.213-.483c.018-.012.04-.013.056-.027.461-.404.887-.745 1.304-1.04a14.915 14.915 0 0 1 1.767-1.064.504.504 0 0 0 .218-.227l.788-1.637.12.683a.5.5 0 0 0 .661.384 13.5 13.5 0 0 1 1.778-.498 13.094 13.094 0 0 0-1.727 3.72 7.127 7.127 0 0 0-4.965-.294zm9.53 21.591c-6.094 0-10.484-1.491-12.48-3.097l-.917-11.17a10.387 10.387 0 0 1 3.074-1.649.496.496 0 0 0 .212-.137l.781-.854a.499.499 0 0 0 .568.603c.422-.068.803-.11 1.164-.128.5-.023.987.001 1.47.049a.53.53 0 0 0 .337-.09l.72-.511c.004.023.015.042.022.063l-.041.146a.504.504 0 0 0 .363.622 10.133 10.133 0 0 1 4.391 2.318.5.5 0 0 0 .829-.447c-.303-1.985-1.144-3.729-2.336-5.047.92-.798 1.93-1.487 3.01-2.038a.501.501 0 0 0 .22-.67l-.401-.799 1.665.685c.113.047.237.05.354.011a14.12 14.12 0 0 1 1.974-.55c.495-.097 1.02-.166 1.603-.212a.502.502 0 0 0 .402-.734l-.379-.708 1.931 1.361a.491.491 0 0 0 .248.09 13.52 13.52 0 0 1 5.215 1.525l-3.141 19.288c-2.355 1.167-6.089 2.08-10.858 2.08z" fill="#231f20"></path>
  </symbol>
  <symbol xmlns="http://www.w3.org/2000/svg" viewBox="0 0 487.194 487.194" id="head-svgrepo-com">
    <path d="M264.911 0c-28.5 0-55.4 6.4-79.5 17.8-63.6 29.5-107.6 93.8-107.6 168.5v30.9l-37.9 72.4c-9.6 18.3-.5 33.2 20.1 33.2h17.8v68.8c0 21.5 17.6 39.1 39.1 39.1l53.7-8 .1 53.7v.4c.3 6.9 6.1 11.4 13.3 10.2l193.5-34.2c7.3-1.3 13.3-8.4 13.3-15.8V323.2c37.1-34 60.3-82.9 60.3-137.1-.1-102.8-83.4-186.1-186.2-186.1zm95 282.6c-44.7 44.7-112.9 51.8-165 21.1l-.3-.2c-20.5 15.5-42.5 18.2-57.8 15.8-5.1-.8-6.2-7.7-1.5-10 14-6.9 22.9-20.6 28-31.7l-1.4-1.1c-47.3-53.4-45.4-135.1 5.7-186.2 53.1-53.1 139.2-53.1 192.3 0 53.1 53 53.1 139.2 0 192.3z" fill="#231f20"></path>
    <path d="M263.511 77.6c-60.1 0-109 48.9-109 109s48.9 109 109 109 109-48.9 109-109-48.9-109-109-109zm-32.2 34.4c-6.6 9.2-13 20.9-17.4 35.2h-21.4c8.6-15.6 22.3-28.1 38.8-35.2zm-45.7 97.6c-2.2-7.3-3.3-15-3.3-23s1.2-15.7 3.3-23h24.5c-1.2 7.2-1.9 14.8-1.9 23s.7 15.9 1.9 23h-24.5zm6.9 16.4h21.4c4.4 14.3 10.8 26 17.4 35.2-16.5-7.1-30.2-19.6-38.8-35.2zm62.8 38.3c-7.9-8-17.7-20.6-24.2-38.3h24.2v38.3zm0-54.7h-28.7c-1.4-7.1-2.2-14.7-2.2-23s.8-16 2.2-23h28.7v46zm0-62.4h-24.2c6.4-17.9 16.3-30.5 24.2-38.5v38.5zm79.2 0h-21.4c-4.4-14.3-10.8-26-17.4-35.2 16.5 7.1 30.2 19.6 38.8 35.2zm-62.8-38.3c7.9 8 17.7 20.6 24.2 38.3h-24.2v-38.3zm0 54.7h28.7c1.4 7.1 2.2 14.7 2.2 23s-.8 16-2.2 23h-28.7v-46zm0 62.4h24.2c-6.4 17.9-16.3 30.5-24.2 38.5V226zm24 35.2c6.6-9.2 13-20.9 17.4-35.2h21.4c-8.6 15.6-22.3 28.1-38.8 35.2zm21.2-51.6c1.2-7.2 1.9-14.8 1.9-23s-.7-15.9-1.9-23h24.5c2.2 7.3 3.3 15 3.3 23s-1.2 15.7-3.3 23h-24.5z" fill="#231f20"></path>
  </symbol>
</svg>