<?xml version="1.0" encoding="iso-8859-1"?>
<!-- Generator: Adobe Illustrator 18.0.0, SVG Export Plug-In . SVG Version: 6.00 Build 0)  -->
<!DOCTYPE svg PUBLIC "-//W3C//DTD SVG 1.1//EN" "http://www.w3.org/Graphics/SVG/1.1/DTD/svg11.dtd">
<svg version="1.1" id="Capa_1" xmlns="http://www.w3.org/2000/svg" xmlns:xlink="http://www.w3.org/1999/xlink" x="0px" y="0px"
	 viewBox="0 0 63.976 63.976" style="enable-background:new 0 0 63.976 63.976;" xml:space="preserve">
<path style="fill:#231F20;" d="M62.445,59.429L35.489,14.633l6.069-10.086c0.854-1.42,0.396-3.263-1.023-4.117
	c-1.42-0.855-3.264-0.396-4.117,1.023l-4.43,7.361l-4.43-7.361c-0.854-1.419-2.696-1.878-4.117-1.023
	c-1.42,0.854-1.878,2.697-1.023,4.117l6.069,10.086L1.531,59.429c-0.558,0.927-0.573,2.082-0.041,3.023
	c0.532,0.941,1.53,1.523,2.611,1.523H24.96h14.055h20.859c1.081,0,2.079-0.582,2.611-1.523
	C63.018,61.511,63.002,60.356,62.445,59.429z M28.988,25.437v17.77H24.96c-1.657,0-3,1.343-3,3v11.769H9.408L28.988,25.437z
	 M27.96,57.976v-8.769h8.055v8.769H27.96z M42.015,57.976V46.207c0-1.657-1.343-3-3-3h-4.027v-17.77l19.58,32.539H42.015z"/>
<g>
</g>
<g>
</g>
<g>
</g>
<g>
</g>
<g>
</g>
<g>
</g>
<g>
</g>
<g>
</g>
<g>
</g>
<g>
</g>
<g>
</g>
<g>
</g>
<g>
</g>
<g>
</g>
<g>
</g>
</svg>
