<?xml version="1.0" encoding="iso-8859-1"?>
<!-- Generator: Adobe Illustrator 18.0.0, SVG Export Plug-In . SVG Version: 6.00 Build 0)  -->
<!DOCTYPE svg PUBLIC "-//W3C//DTD SVG 1.1//EN" "http://www.w3.org/Graphics/SVG/1.1/DTD/svg11.dtd">
<svg version="1.1" id="Capa_1" xmlns="http://www.w3.org/2000/svg" xmlns:xlink="http://www.w3.org/1999/xlink" x="0px" y="0px"
	 viewBox="0 0 66.461 66.461" style="enable-background:new 0 0 66.461 66.461;" xml:space="preserve">
<g>
	<path style="fill:#231F20;" d="M19.24,0c-8.245,0-12,17.226-12,33.231s3.755,33.231,12,33.231c8.245,0,12-17.226,12-33.231
		S27.485,0,19.24,0z M14.234,46.788c-0.266-1.677-0.488-3.516-0.656-5.5h11.325c-0.168,1.984-0.39,3.823-0.656,5.5H14.234z"/>
	<path style="fill:#231F20;" d="M47.221,0c-8.245,0-12,17.226-12,33.231s3.755,33.231,12,33.231s12-17.226,12-33.231
		S55.466,0,47.221,0z M53.221,33.231c0,2.83-0.122,5.417-0.318,7.807h-5.182V6.39C49.639,8.311,53.221,17.255,53.221,33.231z
		 M46.721,6.39v34.648h-5.182c-0.196-2.39-0.318-4.977-0.318-7.807C41.221,17.255,44.803,8.311,46.721,6.39z M42.251,47.038h4.47
		v13.033C45.452,58.801,43.459,54.465,42.251,47.038z M47.721,60.071V47.038h4.47C50.983,54.465,48.99,58.801,47.721,60.071z"/>
</g>
<g>
</g>
<g>
</g>
<g>
</g>
<g>
</g>
<g>
</g>
<g>
</g>
<g>
</g>
<g>
</g>
<g>
</g>
<g>
</g>
<g>
</g>
<g>
</g>
<g>
</g>
<g>
</g>
<g>
</g>
</svg>
