<?xml version="1.0" standalone="no"?>
<!DOCTYPE svg PUBLIC "-//W3C//DTD SVG 20010904//EN"
 "http://www.w3.org/TR/2001/REC-SVG-20010904/DTD/svg10.dtd">
<svg version="1.0" xmlns="http://www.w3.org/2000/svg"
 width="700.000000pt" height="700.000000pt" viewBox="0 0 700.000000 700.000000"
 preserveAspectRatio="xMidYMid meet">
<metadata>
Created by potrace 1.11, written by Peter Selinger 2001-2013
</metadata>
<g transform="translate(0.000000,700.000000) scale(0.100000,-0.100000)"
fill="#000000" stroke="none">
<path d="M3991 4904 c-158 -42 -284 -170 -326 -329 -65 -251 86 -503 340 -570
242 -63 495 91 560 340 63 243 -87 496 -330 560 -73 19 -173 18 -244 -1z"/>
<path d="M2555 4891 c-28 -13 -424 -403 -1287 -1267 -1308 -1311 -1268 -1268
-1268 -1349 0 -72 48 -146 115 -176 38 -18 107 -19 1567 -19 1039 0 1536 3
1555 10 15 6 220 203 455 438 l428 427 422 -422 c233 -231 437 -428 455 -437
29 -14 128 -16 940 -16 859 0 910 1 948 19 67 30 115 104 115 176 0 80 23 56
-958 1039 -645 645 -949 944 -977 957 -51 24 -109 24 -160 0 -26 -13 -166
-146 -410 -390 l-370 -371 -690 689 c-593 592 -696 691 -730 700 -58 16 -104
13 -150 -8z"/>
</g>
</svg>
